<svg width="24" height="24" viewBox="0 0 24 24" fill="none" xmlns="http://www.w3.org/2000/svg">
<path d="M23.6774 0.693665V23.6125H0.765381V0.693665H23.6774Z" fill="white" fill-opacity="0.01"/>
<path d="M18.9041 21.7026H5.53873C5.03234 21.7026 4.5467 21.5014 4.18863 21.1432C3.83056 20.7851 3.62939 20.2993 3.62939 19.7927V18.8378C3.63091 17.5719 4.1343 16.3583 5.02915 15.4632C5.92399 14.5681 7.13723 14.0645 8.40273 14.063H16.0401C17.3056 14.0645 18.5188 14.5681 19.4137 15.4632C20.3085 16.3583 20.8119 17.5719 20.8134 18.8378V19.7927C20.8134 20.2993 20.6123 20.7851 20.2542 21.1432C19.8961 21.5014 19.4105 21.7026 18.9041 21.7026V21.7026ZM12.2214 12.1531C11.2773 12.1531 10.3545 11.8731 9.56948 11.3484C8.78451 10.8238 8.1727 10.078 7.81141 9.20557C7.45013 8.33309 7.3556 7.37305 7.53978 6.44683C7.72396 5.52062 8.17858 4.66984 8.84614 4.00208C9.51371 3.33431 10.3642 2.87956 11.2902 2.69532C12.2161 2.51109 13.1759 2.60565 14.0481 2.96704C14.9203 3.32843 15.6658 3.94042 16.1903 4.72563C16.7148 5.51083 16.9947 6.43398 16.9947 7.37834C16.9932 8.64423 16.4898 9.85782 15.595 10.7529C14.7001 11.6481 13.4869 12.1516 12.2214 12.1531Z" fill="#F4F3FD"/>
</svg>
