<svg width="31" height="30" viewBox="0 0 31 30" fill="none" xmlns="http://www.w3.org/2000/svg">
<path d="M24.4935 21.3281L22.9058 19.7404V13.5865C22.9058 9.80808 20.8873 6.645 17.3673 5.80808V4.97115C17.3673 3.94962 16.5427 3.125 15.5212 3.125C14.4996 3.125 13.675 3.94962 13.675 4.97115V5.80808C10.1427 6.645 8.13655 9.79577 8.13655 13.5865V19.7404L6.54886 21.3281C5.77347 22.1035 6.31501 23.4327 7.41039 23.4327H23.6196C24.7273 23.4327 25.2689 22.1035 24.4935 21.3281ZM20.4442 20.9712H10.5981V13.5865C10.5981 10.5342 12.4565 8.04808 15.5212 8.04808C18.5858 8.04808 20.4442 10.5342 20.4442 13.5865V20.9712ZM15.5212 27.125C16.875 27.125 17.9827 26.0173 17.9827 24.6635H13.0596C13.0596 26.0173 14.155 27.125 15.5212 27.125Z" fill="white"/>
</svg>
