<svg width="30" height="30" viewBox="0 0 30 30" fill="none" xmlns="http://www.w3.org/2000/svg">
<path d="M25.6687 8.99002C25.4629 8.63328 25.1681 8.33599 24.8132 8.12715C24.4583 7.91831 24.0553 7.80506 23.6436 7.79842H8.3957L7.70478 5.10541C7.63498 4.84545 7.47923 4.61679 7.26292 4.45667C7.04661 4.29656 6.78248 4.21441 6.51354 4.22363H4.13106C3.81512 4.22363 3.51213 4.34917 3.28873 4.57264C3.06532 4.79611 2.93982 5.0992 2.93982 5.41523C2.93982 5.73126 3.06532 6.03435 3.28873 6.25781C3.51213 6.48128 3.81512 6.60683 4.13106 6.60683H5.6082L8.89602 18.8326C8.96583 19.0926 9.12157 19.3212 9.33788 19.4814C9.55419 19.6415 9.81833 19.7236 10.0873 19.7144H20.8084C21.0284 19.7137 21.2439 19.6522 21.4311 19.5365C21.6182 19.4208 21.7696 19.2555 21.8686 19.059L25.7759 11.2421C25.9453 10.8871 26.0241 10.4956 26.0054 10.1026C25.9867 9.70962 25.871 9.3274 25.6687 8.99002Z" fill="#F4F3FD"/>
<path d="M9.49166 25.6724C10.4785 25.6724 11.2785 24.8721 11.2785 23.885C11.2785 22.8978 10.4785 22.0976 9.49166 22.0976C8.50481 22.0976 7.7048 22.8978 7.7048 23.885C7.7048 24.8721 8.50481 25.6724 9.49166 25.6724Z" fill="#F4F3FD"/>
<path d="M21.404 25.6724C22.3909 25.6724 23.1909 24.8721 23.1909 23.885C23.1909 22.8978 22.3909 22.0976 21.404 22.0976C20.4172 22.0976 19.6172 22.8978 19.6172 23.885C19.6172 24.8721 20.4172 25.6724 21.404 25.6724Z" fill="#F4F3FD"/>
</svg>
