<svg width="22" height="23" viewBox="0 0 22 23" fill="none" xmlns="http://www.w3.org/2000/svg">
<path d="M19.142 1.78783e-07C20.3672 1.78783e-07 20.9807 1.48134 20.1145 2.34771L18.9562 3.50582C19.7338 4.34104 20.3793 5.2951 20.8667 6.33571C21.6341 7.9742 21.9855 9.77666 21.8899 11.5834C21.7943 13.3902 21.2545 15.1455 20.3185 16.6939C19.3825 18.2422 18.0791 19.5359 16.5237 20.46C14.9683 21.3843 13.209 21.9108 11.4016 21.9927C9.59411 22.0747 7.79436 21.7096 6.16172 20.9298C4.52908 20.1502 3.11393 18.9797 2.04165 17.5225C0.969356 16.0651 0.273017 14.3659 0.0143093 12.5752C-0.0942941 11.8235 0.427059 11.126 1.17878 11.0174C1.93051 10.9088 2.62794 11.4302 2.73655 12.1819C2.93058 13.5249 3.45283 14.7994 4.25705 15.8924C5.06127 16.9853 6.12262 17.8631 7.34711 18.4479C8.57159 19.0327 9.9214 19.3065 11.277 19.2451C12.6326 19.1837 13.9521 18.7888 15.1186 18.0956C16.2851 17.4023 17.2627 16.4322 17.9647 15.2709C18.6667 14.1097 19.0716 12.7932 19.1433 11.4381C19.2149 10.083 18.9514 8.73115 18.3759 7.50229C18.0244 6.75178 17.5631 6.0613 17.0097 5.45238L16.0015 6.46064C15.1351 7.32701 13.6537 6.71341 13.6537 5.4882V1.78783e-07H19.142ZM1.96414 5.50101C2.72366 5.50101 3.33939 6.11673 3.33939 6.87626C3.33939 7.63579 2.72366 8.25151 1.96414 8.25151C1.20461 8.25151 0.588885 7.63578 0.588885 6.87626C0.588885 6.11673 1.20461 5.50101 1.96414 5.50101ZM5.05845 1.71906C5.81798 1.71906 6.4337 2.33479 6.4337 3.09432C6.4337 3.85385 5.81798 4.46957 5.05845 4.46957C4.29892 4.46957 3.6832 3.85384 3.6832 3.09432C3.6832 2.33479 4.29892 1.71906 5.05845 1.71906ZM9.52802 0C10.2875 0 10.9033 0.615722 10.9033 1.37525C10.9033 2.13479 10.2875 2.7505 9.52802 2.7505C8.76848 2.7505 8.15277 2.13479 8.15277 1.37525C8.15277 0.615722 8.76848 0 9.52802 0Z" fill="#FF6905"/>
</svg>
