<svg width="17" height="20" viewBox="0 0 17 20" fill="none" xmlns="http://www.w3.org/2000/svg">
<path d="M15.2054 19.1083H3.74935C2.98977 19.1083 2.2613 18.8065 1.72419 18.2692C1.18709 17.732 0.885345 17.0033 0.885345 16.2435L0.885345 2.87414C0.885345 2.11433 1.18709 1.38564 1.72419 0.848375C2.2613 0.31111 2.98977 0.00927734 3.74935 0.00927734L14.2507 0.00927734C14.7571 0.00927734 15.2427 0.210499 15.6008 0.568676C15.9589 0.926853 16.16 1.41264 16.16 1.91918V14.324C16.1606 14.4807 16.1236 14.6353 16.0521 14.7748L15.5319 15.8166C15.4661 15.9495 15.4318 16.0957 15.4318 16.244C15.4318 16.3922 15.4661 16.5385 15.5319 16.6713L16.0512 17.7093C16.1234 17.8461 16.1608 17.9987 16.16 18.1534C16.16 18.4067 16.0594 18.6496 15.8804 18.8286C15.7014 19.0077 15.4585 19.1083 15.2054 19.1083ZM3.74935 15.2885C3.49615 15.2885 3.25333 15.3891 3.0743 15.5682C2.89526 15.7473 2.79468 15.9902 2.79468 16.2435C2.79468 16.4967 2.89526 16.7396 3.0743 16.9187C3.25333 17.0978 3.49615 17.1984 3.74935 17.1984H13.6846C13.467 16.5804 13.467 15.9066 13.6846 15.2885H3.74935ZM6.61335 4.78404C6.36016 4.78404 6.11733 4.88465 5.9383 5.06374C5.75926 5.24283 5.65868 5.48573 5.65868 5.739C5.65868 5.99226 5.75926 6.23516 5.9383 6.41425C6.11733 6.59334 6.36016 6.69395 6.61335 6.69395H10.432C10.6852 6.69395 10.928 6.59334 11.1071 6.41425C11.2861 6.23516 11.3867 5.99226 11.3867 5.739C11.3867 5.48573 11.2861 5.24283 11.1071 5.06374C10.928 4.88465 10.6852 4.78404 10.432 4.78404H6.61335Z" fill="#3D5CFF"/>
</svg>
