<svg width="23" height="24" viewBox="0 0 23 24" fill="none" xmlns="http://www.w3.org/2000/svg">
<g id="Group 1">
<path id="Path" d="M15.6081 4.00403L14.1071 5.50403H2.85107C2.57493 5.50403 2.35107 5.72789 2.35107 6.00403V21.004C2.35107 21.2802 2.57493 21.504 2.85107 21.504H17.8511C18.1272 21.504 18.3511 21.2802 18.3511 21.004V9.74603L19.8511 8.24703V21.004C19.8511 22.1086 18.9556 23.004 17.8511 23.004H2.85107C1.7465 23.004 0.851074 22.1086 0.851074 21.004V6.00403C0.851074 4.89946 1.7465 4.00403 2.85107 4.00403L15.6081 4.00403Z" fill="white"/>
<path id="Path_2" d="M18.6068 2.76868L19.3141 3.47566C19.3141 3.47566 11.2682 11.4748 10.874 11.9171C10.7012 12.1111 10.651 12.3652 10.6492 12.5893C10.6465 12.9218 10.9168 13.183 11.2493 13.1853C11.4838 13.187 11.7486 13.1432 11.9347 12.9778C12.347 12.6113 20.3747 4.53632 20.3747 4.53632L21.0817 5.24355L11.9669 14.3598C11.589 14.7377 10.795 14.9643 9.58475 15.0396L9.31905 15.0535H9.27676C9.03152 15.0431 8.83502 14.8577 8.80259 14.6229L8.79834 14.5327L8.81218 14.267C8.88214 13.1433 9.08253 12.3784 9.41334 11.9723L9.49199 11.8849L18.6068 2.76868Z" fill="white"/>
<path id="Path_3" d="M21.7796 1.12078L21.8707 1.20316L22.6485 1.98097C23.0878 2.42031 23.1153 3.11556 22.7309 3.58689L22.6485 3.67803L21.5178 4.80869L19.043 2.33382L20.1736 1.20316C20.613 0.763817 21.3082 0.736358 21.7796 1.12078Z" fill="white"/>
</g>
</svg>
