<svg width="22" height="22" viewBox="0 0 22 22" fill="none" xmlns="http://www.w3.org/2000/svg">
<path d="M12.0149 3.03219L18.6976 8.04569C18.9347 8.22359 19.1272 8.45428 19.2598 8.71948C19.3923 8.98468 19.4613 9.27711 19.4613 9.57362V18.6457C19.4613 19.1522 19.2602 19.638 18.9021 19.9962C18.544 20.3544 18.0584 20.5556 17.552 20.5556H4.18668C3.68029 20.5556 3.19464 20.3544 2.83657 19.9962C2.47851 19.638 2.27734 19.1522 2.27734 18.6457V9.57362C2.27734 9.27711 2.34636 8.98468 2.47892 8.71948C2.61148 8.45428 2.80395 8.22359 3.04108 8.04569L9.72374 3.03219C10.0542 2.78424 10.4562 2.65021 10.8693 2.65021C11.2825 2.65021 11.6844 2.78424 12.0149 3.03219V3.03219Z" fill="#3D5CFF"/>
</svg>
