<svg width="17" height="20" viewBox="0 0 17 20" fill="none" xmlns="http://www.w3.org/2000/svg">
<path id="lock" d="M14.9536 19.2042H2.06755C1.61518 19.2037 1.18149 19.0238 0.861613 18.7039C0.541742 18.3841 0.361821 17.9504 0.361328 17.498V9.82372C0.361081 9.37087 0.540675 8.93645 0.860627 8.61598C1.18058 8.2955 1.6147 8.1152 2.06755 8.11471H3.34722V5.53954C3.34681 4.31711 3.78614 3.13531 4.58497 2.20999C5.38353 1.28536 6.48345 0.673047 7.69007 0.481416C8.23401 0.395375 8.78809 0.395375 9.33203 0.481416C10.5385 0.672878 11.6384 1.28484 12.4371 2.20906C13.2362 3.13458 13.6756 4.31677 13.6749 5.53954V8.11471H14.9536C15.4065 8.1152 15.8406 8.2955 16.1605 8.61598C16.4805 8.93645 16.6601 9.37087 16.6598 9.82372V17.498C16.6593 17.9504 16.4794 18.3841 16.1596 18.7039C15.8397 19.0238 15.406 19.2037 14.9536 19.2042ZM8.51058 11.5076C8.30956 11.5178 8.11869 11.599 7.972 11.7369C7.8253 11.8747 7.73232 12.0601 7.70963 12.2601L7.70404 12.3598V14.9191C7.70398 15.1374 7.7877 15.3474 7.93795 15.5058C8.08819 15.6642 8.2935 15.7589 8.51151 15.7703C8.72969 15.7591 8.93523 15.6645 9.08567 15.5061C9.23611 15.3477 9.31997 15.1376 9.31992 14.9191V12.3598L9.31433 12.2601C9.29119 12.0598 9.1977 11.8742 9.0505 11.7364C8.90331 11.5986 8.71198 11.5175 8.51058 11.5076ZM8.51058 2.12337C8.38392 2.12337 8.26936 2.12989 8.1604 2.14107L8.09893 2.14759C7.38167 2.22911 6.70837 2.53473 6.17482 3.02097C5.64126 3.5072 5.27461 4.1493 5.12701 4.85594C5.12142 4.88388 5.11397 4.90995 5.10652 4.9351C5.08115 5.07642 5.06467 5.2192 5.05716 5.36259V5.53675V8.11471H11.9724V5.53954V5.36538C11.9652 5.22201 11.949 5.07924 11.924 4.93789C11.9154 4.91199 11.9085 4.88554 11.9035 4.85873C11.7558 4.15041 11.3881 3.50686 10.8529 3.01997C10.3176 2.53309 9.64226 2.22776 8.92317 2.14759L8.86729 2.142H8.86077C8.7518 2.12989 8.63725 2.12337 8.51058 2.12337Z" fill="white"/>
</svg>
