<svg width="24" height="24" viewBox="0 0 24 24" fill="none" xmlns="http://www.w3.org/2000/svg">
<path d="M23.624 0.693665V23.6125H0.712006V0.693665H23.624Z" fill="white" fill-opacity="0.01"/>
<path d="M12.168 20.2501C11.9325 20.2503 11.7022 20.1805 11.5064 20.0496L9.0176 18.388H5.48534C4.72576 18.388 3.99729 18.0862 3.46018 17.5489C2.92308 17.0116 2.62134 16.2829 2.62134 15.5231V5.97359C2.62134 5.21379 2.92308 4.4851 3.46018 3.94783C3.99729 3.41057 4.72576 3.10873 5.48534 3.10873H18.8507C19.6102 3.10873 20.3387 3.41057 20.8758 3.94783C21.4129 4.4851 21.7147 5.21379 21.7147 5.97359V15.5231C21.7147 16.2829 21.4129 17.0116 20.8758 17.5489C20.3387 18.0862 19.6102 18.388 18.8507 18.388H15.3184L12.8277 20.0496C12.6323 20.18 12.4028 20.2498 12.168 20.2501V20.2501ZM15.5093 9.79341C15.2261 9.79341 14.9492 9.87742 14.7138 10.0348C14.4783 10.1922 14.2947 10.4159 14.1863 10.6777C14.078 10.9394 14.0496 11.2274 14.1048 11.5053C14.1601 11.7832 14.2965 12.0384 14.4968 12.2387C14.697 12.439 14.9522 12.5755 15.23 12.6307C15.5077 12.686 15.7957 12.6576 16.0573 12.5492C16.319 12.4408 16.5426 12.2572 16.7 12.0216C16.8573 11.7861 16.9413 11.5091 16.9413 11.2258C16.9413 10.8459 16.7905 10.4816 16.5219 10.213C16.2534 9.94432 15.8891 9.79341 15.5093 9.79341ZM8.82667 9.79341C8.54345 9.79341 8.26658 9.87742 8.03109 10.0348C7.7956 10.1922 7.61206 10.4159 7.50367 10.6777C7.39529 10.9394 7.36693 11.2274 7.42218 11.5053C7.47744 11.7832 7.61382 12.0384 7.81409 12.2387C8.01436 12.439 8.26952 12.5755 8.5473 12.6307C8.82508 12.686 9.11301 12.6576 9.37467 12.5492C9.63633 12.4408 9.85998 12.2572 10.0173 12.0216C10.1747 11.7861 10.2587 11.5091 10.2587 11.2258C10.2587 10.8459 10.1078 10.4816 9.83924 10.213C9.57069 9.94432 9.20646 9.79341 8.82667 9.79341Z" fill="#F4F3FD"/>
</svg>
