<svg width="20" height="20" viewBox="0 0 20 20" fill="none" xmlns="http://www.w3.org/2000/svg">
<path d="M10 19.166H1.66601C1.44516 19.1657 1.23344 19.0779 1.07728 18.9217C0.92112 18.7656 0.833272 18.5538 0.833008 18.333V10C0.833008 8.18694 1.37064 6.41459 2.37793 4.90709C3.38521 3.39958 4.8169 2.22463 6.49195 1.5308C8.167 0.836968 10.0102 0.655431 11.7884 1.00914C13.5666 1.36285 15.2 2.23592 16.4821 3.51795C17.7641 4.79998 18.6372 6.43338 18.9909 8.21161C19.3446 9.98983 19.163 11.833 18.4692 13.5081C17.7754 15.1831 16.6004 16.6148 15.0929 17.6221C13.5854 18.6294 11.8131 19.167 10 19.167V19.166ZM5.83301 13.333C5.61195 13.333 5.39995 13.4208 5.24363 13.5771C5.08732 13.7334 4.99951 13.9454 4.99951 14.1665C4.99951 14.3876 5.08732 14.5996 5.24363 14.7559C5.39995 14.9122 5.61195 15 5.83301 15H10C10.2211 15 10.4331 14.9122 10.5894 14.7559C10.7457 14.5996 10.8335 14.3876 10.8335 14.1665C10.8335 13.9454 10.7457 13.7334 10.5894 13.5771C10.4331 13.4208 10.2211 13.333 10 13.333H5.83301ZM5.83301 10C5.61195 10 5.39995 10.0878 5.24363 10.2441C5.08732 10.4004 4.99951 10.6124 4.99951 10.8335C4.99951 11.0546 5.08732 11.2666 5.24363 11.4229C5.39995 11.5792 5.61195 11.667 5.83301 11.667H13.333C13.5541 11.667 13.7661 11.5792 13.9224 11.4229C14.0787 11.2666 14.1665 11.0546 14.1665 10.8335C14.1665 10.6124 14.0787 10.4004 13.9224 10.2441C13.7661 10.0878 13.5541 10 13.333 10H5.83301ZM5.83301 6.666C5.61195 6.666 5.39995 6.75382 5.24363 6.91013C5.08732 7.06644 4.99951 7.27844 4.99951 7.4995C4.99951 7.72056 5.08732 7.93256 5.24363 8.08887C5.39995 8.24519 5.61195 8.333 5.83301 8.333H13.333C13.5541 8.333 13.7661 8.24519 13.9224 8.08887C14.0787 7.93256 14.1665 7.72056 14.1665 7.4995C14.1665 7.27844 14.0787 7.06644 13.9224 6.91013C13.7661 6.75382 13.5541 6.666 13.333 6.666H5.83301Z" fill="#3D5CFF"/>
</svg>
