<svg xmlns="http://www.w3.org/2000/svg" viewBox="0 0 500 500"><g id="freepik--background-complete--inject-72"><path d="M195.29,51.38c.52-3.73-4.76-6.8-8.72-7.12-1.89-.16-3.85.13-5.64-.49-3.87-1.35-5.42-6.36-9.21-8-2.83-1.19-6.08-.13-8.82,1.25s-5.46,3.12-8.52,3.32c-2.66.17-5.56-.82-7.89.48-1.74,1-2.65,3-4.25,4.15a10.12,10.12,0,0,1-5.55,1.51,15.53,15.53,0,0,0-5.73.93c-1.77.81-3.23,2.69-2.86,4.6Z" style="fill:#f5f5f5"></path><path d="M460.8,272.09c.86-6.21-7.91-11.32-14.5-11.85-3.14-.26-6.4.22-9.38-.82-6.44-2.24-9-10.57-15.31-13.23-4.7-2-10.12-.21-14.68,2.08s-9.06,5.18-14.16,5.51c-4.43.28-9.24-1.36-13.12.81-2.89,1.61-4.4,4.94-7.06,6.9s-6,2.33-9.24,2.51-6.58.2-9.52,1.55-5.38,4.46-4.77,7.64Z" style="fill:#ebebeb"></path><path d="M127.4,120.53c.65-4.75-6.06-8.66-11.1-9.07-2.4-.19-4.89.18-7.17-.62-4.93-1.72-6.9-8.09-11.72-10.12-3.59-1.52-7.74-.16-11.23,1.59s-6.93,4-10.83,4.22c-3.39.21-7.07-1-10,.61-2.21,1.24-3.36,3.78-5.4,5.28s-4.59,1.79-7.07,1.92-5,.16-7.28,1.19-4.11,3.41-3.65,5.84Z" style="fill:#f5f5f5"></path><polygon points="392.87 379.38 370.62 475.98 380.03 475.95 402.32 380.29 392.87 379.38" style="fill:#e0e0e0"></polygon><polygon points="433.45 379.38 455.78 475.98 464.72 475.98 443.12 379.38 433.45 379.38" style="fill:#e0e0e0"></polygon><polygon points="377.85 306.83 390.52 373.34 404.91 373.34 391.38 306.83 377.85 306.83" style="fill:#e0e0e0"></polygon><polygon points="157.22 379.38 139.07 475.98 148.31 475.98 167.27 379.38 157.22 379.38" style="fill:#e0e0e0"></polygon><polygon points="195.38 379.38 216.12 475.45 225.25 475.45 205.22 379.38 195.38 379.38" style="fill:#e0e0e0"></polygon><polygon points="142.2 306.83 154.87 373.34 169.26 373.34 155.73 306.83 142.2 306.83" style="fill:#e0e0e0"></polygon><polygon points="113.7 300.79 116.29 312.88 405.34 312.88 401.97 300.79 113.7 300.79" style="fill:#ebebeb"></polygon><polygon points="119.22 324.27 122.28 336.36 409.37 336.36 406.76 324.27 119.22 324.27" style="fill:#ebebeb"></polygon><polygon points="124.93 348.58 127.77 360.67 413.98 360.67 411.27 348.58 124.93 348.58" style="fill:#ebebeb"></polygon><rect x="146.81" y="373.34" width="308.63" height="12.09" style="fill:#ebebeb"></rect><path d="M330.38,223.6a13.6,13.6,0,0,1-11.8-20.37l39-68a13.45,13.45,0,0,1,11.76-6.83h0a13.47,13.47,0,0,1,11.76,6.76l39.4,67.77a13.61,13.61,0,0,1-11.72,20.44l-78.39.24Zm39-91.15h0a9.44,9.44,0,0,0-8.25,4.8l-39,68a9.54,9.54,0,0,0,8.27,14.29h0l78.39-.24A9.54,9.54,0,0,0,417,205l-39.4-67.76A9.44,9.44,0,0,0,369.37,132.45Z" style="fill:#ebebeb"></path><path d="M361.72,161.87l1.83,25.37a4.1,4.1,0,0,0,3.89,3.81h0a4.12,4.12,0,0,0,4.31-3.69l2.6-25.53a3.24,3.24,0,0,0-3.29-3.56l-6.19.14A3.23,3.23,0,0,0,361.72,161.87Z" style="fill:#ebebeb"></path><path d="M374.29,205.27a6.19,6.19,0,1,1-4-7.8A6.19,6.19,0,0,1,374.29,205.27Z" style="fill:#ebebeb"></path></g><g id="freepik--Floor--inject-72"><path d="M469.81,475.86c0,.14-98.42.26-219.8.26S30.19,476,30.19,475.86s98.4-.26,219.82-.26S469.81,475.71,469.81,475.86Z" style="fill:#263238"></path></g><g id="freepik--Device--inject-72"><path d="M317.52,368.58l-101-.07c-12.14,0-22-10.35-22-23.11l0-266c0-12.76,9.86-23.11,22-23.1l100.95.06c12.15,0,22,10.35,22,23.11l-.05,266C339.52,358.24,329.67,368.58,317.52,368.58Z" style="fill:#263238"></path><path d="M317.49,65.78l-19.58,0A5,5,0,0,0,293.16,71v3.73a5,5,0,0,1-4.76,5.22l-38.15,0a5,5,0,0,1-4.75-5.23V71a5,5,0,0,0-4.75-5.22h-24c-8.51,0-15.41,7.25-15.41,16.19l0,259.62c0,8.93,6.89,16.18,15.39,16.19l100.76.06c8.51,0,15.41-7.24,15.41-16.18L332.88,82C332.88,73,326,65.78,317.49,65.78Z" style="fill:#fff"></path><path d="M228.8,333.27v6.35a.7.7,0,0,1-1.07.59l-5-3.18a.7.7,0,0,1,0-1.18l5-3.18A.7.7,0,0,1,228.8,333.27Z" style="fill:#e0e0e0"></path><path d="M269.86,336.38a4.38,4.38,0,1,1-4.38-4.39A4.39,4.39,0,0,1,269.86,336.38Z" style="fill:#e0e0e0"></path><rect x="301.32" y="332.56" width="8.08" height="8.1" rx="1.87" style="fill:#e0e0e0"></rect><circle cx="267.44" cy="180.47" r="49.74" transform="translate(29.23 398.07) rotate(-76.42)" style="fill:#f5f5f5"></circle><path d="M269.67,202.38a4.11,4.11,0,1,1-4.09-4.12A4.12,4.12,0,0,1,269.67,202.38Z" style="fill:#455a64"></path><path d="M257.35,197.1a11.39,11.39,0,0,1,16.48-.22c2.1,2.12,5.38-1.13,3.28-3.25a16.07,16.07,0,0,0-23,.19c-2.05,2.15,1.2,5.44,3.26,3.28Z" style="fill:#455a64"></path><path d="M243.39,178c6.25-5.4,13.71-8.8,22.06-8.82A32.7,32.7,0,0,1,288,177.76c2.16,2,5.45-1.21,3.28-3.25a37.55,37.55,0,0,0-25.78-10c-9.61,0-18.15,4-25.34,10.17-2.25,1.95,1,5.22,3.26,3.28Z" style="fill:#455a64"></path><path d="M248.9,188.57a22.6,22.6,0,0,1,33.23-.47c2.08,2.13,5.36-1.12,3.28-3.26a27.23,27.23,0,0,0-39.77.45c-2,2.18,1.23,5.47,3.26,3.28Z" style="fill:#455a64"></path><circle cx="291.96" cy="167.08" r="12.61" transform="translate(76.6 425.49) rotate(-79.97)" style="fill:#3D5CFF"></circle><rect x="291.01" y="161.01" width="2.53" height="11.33" transform="translate(203.46 -157.85) rotate(45)" style="fill:#fff"></rect><rect x="291.01" y="161.01" width="2.53" height="11.33" transform="translate(-32.25 255.48) rotate(-45)" style="fill:#fff"></rect><path d="M264.11,93.55a8.36,8.36,0,0,1,2-.87l.41-2,3.33-.06.48,2a8.17,8.17,0,0,1,2,.8L274,92.3l2.4,2.32-1.05,1.72a8.36,8.36,0,0,1,.87,2l2,.41.06,3.34-2,.47a8.14,8.14,0,0,1-.79,2l1.1,1.68-2.31,2.4-1.72-1a8.39,8.39,0,0,1-2,.86l-.41,2-3.33.06-.48-2a8.34,8.34,0,0,1-2-.8l-1.69,1.1-2.4-2.31,1.05-1.72a8.25,8.25,0,0,1-.87-2l-2-.41-.06-3.33,2-.48a8.31,8.31,0,0,1,.79-2l-1.1-1.69,2.32-2.39,1.72,1ZM265.88,98a3.58,3.58,0,1,0,5.06-.09A3.58,3.58,0,0,0,265.88,98Z" style="fill:#e0e0e0"></path><path d="M221.82,101c-1,0-2.39,0-3.72,0-1.59,0-3.18,0-4.29,0h0a.5.5,0,0,1-.5-.5.49.49,0,0,1,.49-.5c1.11,0,2.72,0,4.32,0s3.18.06,4.29,0h0a.49.49,0,0,1,.5.49.5.5,0,0,1-.49.51Z" style="fill:#263238"></path><path d="M216.85,104.36a.51.51,0,0,1-.37-.17l-3-3.43a.52.52,0,0,1,0-.68l3-3.12a.5.5,0,1,1,.72.69l-2.65,2.79,2.74,3.09a.5.5,0,0,1-.38.83Z" style="fill:#263238"></path><circle cx="319.93" cy="96.54" r="1.55" style="fill:#263238"></circle><path d="M321.48,101.44a1.56,1.56,0,1,1-1.55-1.55A1.55,1.55,0,0,1,321.48,101.44Z" style="fill:#263238"></path><circle cx="319.93" cy="106.34" r="1.55" style="fill:#263238"></circle><path d="M233.76,248.89a49.33,49.33,0,0,1-7.1.26,49.24,49.24,0,0,1-7.09-.26,49.24,49.24,0,0,1,7.09-.26A49.33,49.33,0,0,1,233.76,248.89Z" style="fill:#263238"></path><path d="M259.23,265.49c0,.14-8.72.26-19.47.26s-19.47-.12-19.47-.26,8.71-.26,19.47-.26S259.23,265.35,259.23,265.49Z" style="fill:#263238"></path><path d="M259.23,282c0,.14-8.72.26-19.47.26s-19.47-.12-19.47-.26,8.71-.26,19.47-.26S259.23,281.84,259.23,282Z" style="fill:#263238"></path><rect x="290.23" y="259.26" width="26.7" height="12.45" rx="6.23" style="fill:#ebebeb"></rect><path d="M301.6,265.49a5.22,5.22,0,1,1-5.22-5.22A5.22,5.22,0,0,1,301.6,265.49Z" style="fill:#e0e0e0"></path><path d="M310.71,288.21H296.46a6.23,6.23,0,0,1-6.23-6.23h0a6.23,6.23,0,0,1,6.23-6.23h14.25a6.23,6.23,0,0,1,6.23,6.23h0A6.23,6.23,0,0,1,310.71,288.21Z" style="fill:#ebebeb"></path><circle cx="296.38" cy="281.98" r="5.22" style="fill:#e0e0e0"></circle><path d="M259.23,298.58c0,.15-8.72.26-19.47.26s-19.47-.11-19.47-.26,8.71-.26,19.47-.26S259.23,298.44,259.23,298.58Z" style="fill:#263238"></path><path d="M310.71,306.65H296.46a6.22,6.22,0,0,1-6.23-6.22h0a6.23,6.23,0,0,1,6.23-6.23h14.25a6.23,6.23,0,0,1,6.23,6.23h0A6.22,6.22,0,0,1,310.71,306.65Z" style="fill:#ebebeb"></path><circle cx="296.38" cy="300.43" r="5.22" style="fill:#e0e0e0"></circle></g><g id="freepik--Sun--inject-72"><circle cx="413.58" cy="80.66" r="16.3" transform="translate(268.04 476.1) rotate(-80.83)" style="fill:#3D5CFF"></circle><path d="M411.26,117.11c-.09,0-.17-3-.17-6.73s.08-6.72.17-6.72a64.49,64.49,0,0,1,.17,6.72A64.61,64.61,0,0,1,411.26,117.11Z" style="fill:#3D5CFF"></path><path d="M401.87,99.87c.08,0-1.45,2.86-3.42,6.27s-3.64,6.15-3.72,6.1,1.45-2.85,3.42-6.27S401.79,99.82,401.87,99.87Z" style="fill:#3D5CFF"></path><path d="M392.23,93.87a35.87,35.87,0,0,1-3.8,3.24,39.42,39.42,0,0,1-4,3,35.87,35.87,0,0,1,3.8-3.24A37,37,0,0,1,392.23,93.87Z" style="fill:#3D5CFF"></path><path d="M427.52,110.48a9,9,0,0,1-.43-1.65c-.23-1-.57-2.44-1-4s-.84-2.94-1.15-3.94a8.53,8.53,0,0,1-.46-1.65,8.11,8.11,0,0,1,.69,1.57c.37,1,.83,2.37,1.25,3.93s.71,3,.89,4A8.25,8.25,0,0,1,427.52,110.48Z" style="fill:#3D5CFF"></path><path d="M444.05,98.75a57.74,57.74,0,0,1-4.82-4,57.16,57.16,0,0,1-4.59-4.24,57.74,57.74,0,0,1,4.82,4A57.16,57.16,0,0,1,444.05,98.75Z" style="fill:#3D5CFF"></path><path d="M450.38,82.63a13,13,0,0,1-2-.28c-1.21-.2-2.88-.46-4.73-.67s-3.54-.34-4.76-.42a12.15,12.15,0,0,1-2-.17,10,10,0,0,1,2-.07c1.23,0,2.93.11,4.79.32s3.54.51,4.74.77A11,11,0,0,1,450.38,82.63Z" style="fill:#3D5CFF"></path><path d="M450.4,66.78c0,.1-3.5,1-7.88,2.1s-7.94,1.85-8,1.76,3.51-1,7.88-2.09S450.38,66.69,450.4,66.78Z" style="fill:#3D5CFF"></path><path d="M432,48.32c.07,0-1.61,2.74-3.77,6s-4,5.88-4.06,5.82,1.61-2.74,3.77-6A69.81,69.81,0,0,1,432,48.32Z" style="fill:#3D5CFF"></path><path d="M413.71,44.46a16,16,0,0,1,0,2.24c0,1.38,0,3.28,0,5.38s0,4,.06,5.4a15.82,15.82,0,0,1,0,2.23,12.59,12.59,0,0,1-.23-2.22c-.08-1.38-.15-3.29-.15-5.4s.06-4,.14-5.4A12.35,12.35,0,0,1,413.71,44.46Z" style="fill:#3D5CFF"></path><path d="M399.87,61.69c-.08.05-1.8-2.61-3.83-5.94s-3.63-6.08-3.55-6.13,1.8,2.62,3.84,6S400,61.65,399.87,61.69Z" style="fill:#3D5CFF"></path><path d="M391.6,68.72a7.69,7.69,0,0,1-1.73-.27c-1.06-.23-2.51-.58-4.1-1s-3-1-4-1.35a8.59,8.59,0,0,1-1.61-.7,9.09,9.09,0,0,1,1.69.48c1,.32,2.45.78,4,1.24s3,.86,4.06,1.14A9.26,9.26,0,0,1,391.6,68.72Z" style="fill:#3D5CFF"></path><path d="M388,81.24a37.91,37.91,0,0,1-5.2.67,41.62,41.62,0,0,1-5.23.34,38.48,38.48,0,0,1,5.2-.68A42.56,42.56,0,0,1,388,81.24Z" style="fill:#3D5CFF"></path></g><g id="freepik--plant-2--inject-72"><path d="M376.88,371.74l14.58,103.87,3.8.12C392.84,440.45,390.26,404.47,376.88,371.74Z" style="fill:#455a64"></path><path d="M417.39,366.87C407.2,378,403.1,393.39,400.52,408.28c-3.66,21.11-4,46.05-2.89,67.45l5.32.12A292.89,292.89,0,0,1,417.39,366.87Z" style="fill:#455a64"></path><path d="M379.56,433.19c-1.17-5.15-2.51-10.38-5.45-14.77-4-5.92-10.43-9.66-16.94-12.58s-13.34-5.24-19.22-9.28c6.56,10.75,21.44,13.61,29,23.67,3.77,5,5.34,11.28,6.81,17.37,3.23,13.28,5.21,24.77,8.43,38h4.32A340.37,340.37,0,0,0,379.56,433.19Z" style="fill:#455a64"></path><path d="M406.84,475.73s3.65-41.25,6.36-48.83,28.31-28.5,28.07-27.51S422.06,423.27,419.35,428,412,475.73,412,475.73Z" style="fill:#455a64"></path></g><g id="freepik--plant-1--inject-72"><path d="M285.82,432.59a8.08,8.08,0,0,1,4.49,4.47,14.33,14.33,0,0,1,1,6.39c-.21,4.2-2.3,8.57-4.64,12.07-3.71-2.84-4.86-8.13-5.28-10.86-.66-4.3.76-12.48,4.45-12.07" style="fill:#3D5CFF"></path><path d="M291.18,462.13a6.91,6.91,0,0,1,1.81-6.7,9.13,9.13,0,0,1,6.61-2.54,3.88,3.88,0,0,1,3,1.13,2.94,2.94,0,0,1,.24,3,5.92,5.92,0,0,1-2.07,2.32c-2.92,2.11-6.13,3.61-9.64,2.8" style="fill:#3D5CFF"></path><path d="M287.51,475.21a5.43,5.43,0,0,1,.07-.86c.07-.61.16-1.4.27-2.34a24.48,24.48,0,0,1,1.91-7.56,14.87,14.87,0,0,1,4.95-6,10.13,10.13,0,0,1,2.1-1.09,4.6,4.6,0,0,1,.61-.2l.22-.05a16.29,16.29,0,0,0-2.81,1.52,15.39,15.39,0,0,0-4.79,5.94,26,26,0,0,0-2,7.46c-.15,1-.27,1.78-.37,2.33A4.14,4.14,0,0,1,287.51,475.21Z" style="fill:#263238"></path><path d="M285.28,438.91a1.47,1.47,0,0,1,.07.37l.13,1.07c.12.94.26,2.28.42,3.95.33,3.34.71,7.95,1,13.05s.49,9.73.57,13.08c0,1.68.06,3,.06,4v1.08c0,.25,0,.38,0,.38a2.28,2.28,0,0,1,0-.38l-.05-1.08c0-1-.09-2.31-.16-4-.14-3.35-.34-8-.65-13.07s-.66-9.71-.93-13.05c-.14-1.64-.24-3-.32-3.95,0-.44-.06-.8-.08-1.08A2.72,2.72,0,0,1,285.28,438.91Z" style="fill:#263238"></path><path d="M285.27,465.07a16.14,16.14,0,0,0-9.57-11.24c-1.21-.49-2.77-.76-3.68.18s-.59,2.49,0,3.67a13.82,13.82,0,0,0,13.23,7.74" style="fill:#3D5CFF"></path><path d="M276.52,457.74a4,4,0,0,1,.77.28c.24.1.54.22.87.39s.72.35,1.12.61a12.66,12.66,0,0,1,1.28.84,16.18,16.18,0,0,1,1.38,1.1,17.81,17.81,0,0,1,2.69,3,17.23,17.23,0,0,1,1.88,3.59,16,16,0,0,1,.52,1.68,15.07,15.07,0,0,1,.31,1.51,10.76,10.76,0,0,1,.14,1.26,6.57,6.57,0,0,1,0,1,4.31,4.31,0,0,1,0,.81c-.07,0,0-1.16-.35-3a14,14,0,0,0-.34-1.48,15.94,15.94,0,0,0-.55-1.65,17.92,17.92,0,0,0-1.86-3.52,19,19,0,0,0-2.62-3,16.12,16.12,0,0,0-1.35-1.11c-.42-.34-.86-.6-1.25-.86C277.58,458.22,276.5,457.8,276.52,457.74Z" style="fill:#263238"></path></g></svg>