<svg width="55" height="76" viewBox="0 0 55 76" fill="none" xmlns="http://www.w3.org/2000/svg">
<g id="Avatar">
<g id="Avatar_2">
<path id="Ellipse 212" d="M27.3418 54.6835C42.4422 54.6835 54.6835 42.4422 54.6835 27.3418C54.6835 12.2413 42.4422 0 27.3418 0C12.2413 0 0 12.2413 0 27.3418C0 42.4422 12.2413 54.6835 27.3418 54.6835Z" fill="#EAEAFF"/>
<g id="Mask Group">
<g id="Avatar_3">
<path id="Vector" d="M27.3418 54.6836C21.9341 54.6836 16.6478 53.08 12.1515 50.0756C7.65518 47.0713 4.15071 42.8011 2.08128 37.805C0.0118467 32.809 -0.529612 27.3115 0.525377 22.0077C1.58037 16.7039 4.18442 11.832 8.00823 8.00823C11.832 4.18442 16.7039 1.58037 22.0077 0.525377C27.3115 -0.529612 32.809 0.0118467 37.805 2.08128C42.8011 4.15071 47.0713 7.65518 50.0756 12.1515C53.08 16.6478 54.6836 21.9341 54.6836 27.3418C54.6836 34.5933 51.8029 41.5478 46.6753 46.6753C41.5478 51.8029 34.5933 54.6836 27.3418 54.6836Z" fill="#FFEBF0"/>
</g>
<path id="Vector_2" d="M30.6835 21.2804C31.1644 21.0362 31.7103 20.9507 32.2428 21.0361C32.7432 21.0721 33.225 21.2404 33.6389 21.524" fill="white"/>
<path id="Vector_3" d="M25.9379 21.2804C25.4573 21.0364 24.9117 20.9508 24.3794 21.0361C23.8787 21.0719 23.3966 21.2403 22.9824 21.5239" fill="white"/>
<g id="Group">
<path id="Vector_4" d="M41.0708 61.2114L45.0704 71.8918C48.5463 70.2492 51.7807 68.1382 54.6836 65.6177C53.9787 63.5568 53.3686 61.9975 53.3686 61.9975L41.0708 61.2114Z" fill="#DA5742"/>
<path id="Vector_5" d="M9.65506 72.0994L13.8298 60.9269L1.53199 61.7129C1.51832 61.7266 0.786076 63.6115 0 65.968C2.92208 68.4447 6.17087 70.5078 9.65506 72.0994Z" fill="#DA5742"/>
<path id="Vector_6" d="M41.0708 61.2114L42.4541 64.8453L54.6562 65.6049C53.9924 63.6892 53.3686 61.9975 53.3686 61.9975L41.0708 61.2114Z" fill="#C43D28"/>
<path id="Vector_7" d="M13.952 60.5338L12.5653 64.1677L0.176025 65.3742C0.840772 63.4765 1.65419 61.3199 1.65419 61.3199L13.952 60.5338Z" fill="#C43D28"/>
<path id="Vector_8" d="M13.4368 44.4799C8.06753 46.9202 2.18307 54.4588 0.0136719 63.2996H9.6132L8.02737 71.3261C13.9422 74.3464 20.4903 75.9174 27.1316 75.9093C33.7998 75.9202 40.3738 74.3349 46.3041 71.286L44.6226 64.3301L54.3307 63.462C54.317 63.462 52.0801 50.9873 41.8432 45.0917C33.6398 40.3718 21.0028 41.0767 13.4368 44.4799Z" fill="#3D5CFF"/>
<path id="Vector_9" d="M12.2312 54.2016L6.52271 63.2996L9.76356 63.2859L12.2312 54.2016Z" fill="#224BF4"/>
<path id="Vector_10" d="M44.6235 64.3301L47.5115 64.0857L41.0708 53.0627L44.6235 64.3301Z" fill="#224BF4"/>
<path id="Vector_11" d="M9.73453 63.4346C9.70082 63.4248 9.67206 63.4026 9.654 63.3725C9.63594 63.3424 9.62991 63.3066 9.63713 63.2723L12.3517 53.2114C12.3615 53.1776 12.3836 53.1489 12.4137 53.1308C12.4438 53.1128 12.4796 53.1067 12.514 53.1139C12.5472 53.1243 12.5754 53.1467 12.5929 53.1767C12.6105 53.2067 12.6162 53.2423 12.6088 53.2763L9.89346 63.3398C9.88595 63.3666 9.87002 63.3903 9.84802 63.4074C9.82602 63.4244 9.79912 63.434 9.77127 63.4346H9.73453Z" fill="#1F1F39"/>
<path id="Vector_12" d="M44.3646 64.3301L40.8939 53.0618C40.8884 53.0456 40.8862 53.0284 40.8876 53.0113C40.8889 52.9941 40.8938 52.9775 40.9018 52.9623C40.9098 52.9471 40.9208 52.9337 40.9341 52.9229C40.9474 52.9121 40.9628 52.9041 40.9794 52.8995C40.9956 52.894 41.0128 52.8918 41.0299 52.8932C41.047 52.8945 41.0637 52.8993 41.0789 52.9073C41.0941 52.9153 41.1075 52.9263 41.1183 52.9397C41.1291 52.953 41.137 52.9684 41.1417 52.9849L44.6226 64.248C44.6282 64.2643 44.6303 64.2815 44.629 64.2986C44.6276 64.3157 44.6228 64.3324 44.6148 64.3476C44.6068 64.3627 44.5958 64.3761 44.5825 64.3869C44.5691 64.3977 44.5537 64.4057 44.5372 64.4104C44.5099 64.4104 44.4962 64.424 44.4834 64.424C44.4562 64.4228 44.4302 64.413 44.4089 64.3961C44.3876 64.3793 44.3721 64.3562 44.3646 64.3301Z" fill="#1F1F39"/>
</g>
<path id="Vector_13" d="M17.6347 22.3519C17.6347 22.3519 14.4604 22.3519 13.606 20.9686C13.3691 20.5937 13.2783 20.1448 13.3508 19.7074C13.4232 19.2699 13.654 18.8743 13.999 18.5958C13.999 18.5958 12.2782 16.3179 13.1873 14.2297C13.4743 13.5473 13.9855 12.9833 14.6364 12.6308C15.2874 12.2783 16.0391 12.1584 16.7674 12.291C16.7674 12.291 14.9364 9.05097 17.1733 6.62354C19.9126 3.64072 24.4949 6.62354 24.4949 6.62354C24.5825 6.07998 24.8617 5.5857 25.282 5.22999C25.7023 4.87429 26.2359 4.68062 26.7865 4.68398C28.7662 4.68398 28.7662 5.88018 28.7662 5.88018C29.3383 5.17306 30.1087 4.65301 30.9784 4.38674C31.8481 4.12048 32.7776 4.12014 33.6475 4.38578C38.217 5.72809 37.4301 10.7991 37.4301 10.7991C37.6983 10.7426 37.9752 10.7405 38.2443 10.7929C38.5134 10.8452 38.7692 10.951 38.9967 11.1039C39.2242 11.2569 39.4188 11.4539 39.5688 11.6833C39.7189 11.9127 39.8214 12.1699 39.8703 12.4396C40.049 12.9972 40.0068 13.6022 39.7525 14.1296C39.4981 14.657 39.0509 15.0665 38.5033 15.2738C38.5033 15.2738 40.3471 14.9756 40.8102 16.47C41.0064 17.0968 40.9934 17.7703 40.7734 18.3891C40.5533 19.0079 40.138 19.5384 39.5901 19.9005L38.5152 25.1143L18.0687 25.955L17.6347 22.3519Z" fill="#1F1F39"/>
<g id="Group_2">
<g id="Group_3">
<path id="Vector_14" d="M14.0946 21.8905C11.8876 22.9073 11.6535 25.9713 13.3214 27.8971C14.9892 29.823 19.1921 29.3753 19.1921 29.3753L18.5821 22.4869C18.5821 22.4869 16.3042 20.8703 14.0946 21.8905Z" fill="#C43D28"/>
<g id="Group_4">
<path id="Vector_15" d="M40.5897 21.8905C42.8001 22.9073 43.03 25.9721 41.3587 27.8971C39.6874 29.8222 35.4913 29.3753 35.4913 29.3753L36.6166 22.3946C37.1686 21.9537 37.8315 21.6733 38.5324 21.5844C39.2332 21.4955 39.9451 21.6014 40.5897 21.8905Z" fill="#C43D28"/>
<path id="Vector_16" d="M36.6841 27.951C36.7846 27.1384 37.0979 26.3667 37.5923 25.7141C38.2447 24.8142 39.1734 24.1523 40.2368 23.8292C40.2584 23.8223 40.2812 23.82 40.3038 23.8225C40.3263 23.825 40.3481 23.8323 40.3676 23.8438C40.3872 23.8554 40.404 23.8709 40.4171 23.8895C40.4302 23.908 40.4392 23.9291 40.4436 23.9514C40.45 23.9728 40.4518 23.9953 40.449 24.0174C40.4462 24.0395 40.4388 24.0609 40.4273 24.08C40.4158 24.0991 40.4005 24.1157 40.3822 24.1285C40.364 24.1414 40.3433 24.1503 40.3214 24.1547C39.3381 24.4562 38.4771 25.0643 37.8641 25.8901C37.4061 26.4918 37.1117 27.2018 37.0096 27.951C37.009 27.9938 36.9916 28.0347 36.9613 28.065C36.931 28.0953 36.8901 28.1126 36.8473 28.1133C36.8043 28.1129 36.7632 28.0956 36.7327 28.0653C36.7022 28.035 36.6847 27.994 36.6841 27.951V27.951Z" fill="#1F1F39"/>
<path id="Vector_17" d="M18.4207 27.9518C18.3162 27.2032 18.0221 26.4938 17.5662 25.8909C16.959 25.0605 16.0974 24.451 15.1123 24.1547C15.07 24.1423 15.0338 24.1147 15.0107 24.0771C14.9877 24.0395 14.9794 23.9947 14.9875 23.9514C15.0011 23.9093 15.0294 23.8736 15.0673 23.8508C15.1051 23.8281 15.15 23.8198 15.1935 23.8275C16.2598 24.1451 17.19 24.8089 17.8371 25.7141C18.3378 26.3636 18.6524 27.1371 18.747 27.9518C18.747 27.995 18.7299 28.0364 18.6994 28.0669C18.6688 28.0974 18.6274 28.1146 18.5843 28.1146C18.5411 28.1146 18.4997 28.0974 18.4692 28.0669C18.4387 28.0364 18.4215 27.995 18.4215 27.9518H18.4207Z" fill="#1F1F39"/>
<path id="Vector_18" d="M22.732 35.5862L22.1758 43.288C22.1758 43.288 22.9448 44.9832 27.0461 44.9832C31.4797 44.9832 32.6998 43.288 32.6998 43.288L32.4828 35.7084C32.4828 35.7084 35.2486 35.2606 36.5772 30.2716C37.3765 27.2065 37.6019 24.02 37.242 20.8729C37.242 20.8729 30.7047 21.8905 28.4943 19.1811C26.2839 16.4717 24.0607 13.7418 20.848 15.0978C17.6354 16.4538 18.0404 25.1989 18.8828 29.3616C19.412 31.8174 20.7714 34.0156 22.732 35.5862Z" fill="#DA5742"/>
<path id="Vector_19" d="M24.1693 25.1989C23.8794 25.1715 23.612 25.0314 23.4244 24.8088C23.2368 24.5862 23.144 24.2989 23.1662 24.0086C23.1424 23.7174 23.2344 23.4285 23.4221 23.2046C23.6099 22.9807 23.8783 22.8398 24.1693 22.8124C24.4603 22.8396 24.729 22.9804 24.9169 23.2043C25.1049 23.4283 25.197 23.7173 25.1732 24.0086C25.1953 24.299 25.1025 24.5865 24.9147 24.8091C24.7269 25.0317 24.4592 25.1717 24.1693 25.1989Z" fill="#1F1F39"/>
<path id="Vector_20" d="M31.478 25.1989C31.1882 25.1715 30.9207 25.0314 30.7331 24.8088C30.5455 24.5862 30.4528 24.2989 30.4749 24.0086C30.4511 23.7174 30.5431 23.4285 30.7308 23.2046C30.9186 22.9807 31.187 22.8398 31.478 22.8124C31.7691 22.8396 32.0377 22.9804 32.2257 23.2043C32.4136 23.4283 32.5057 23.7173 32.4819 24.0086C32.504 24.299 32.4112 24.5865 32.2234 24.8091C32.0356 25.0317 31.7679 25.1717 31.478 25.1989Z" fill="#1F1F39"/>
<path id="Vector_21" d="M27.0571 25.6466C27.3989 26.3241 28.2773 25.9883 28.2773 25.9883C28.2773 25.9883 27.3963 25.7542 27.3963 25.0767C27.3818 24.3991 27.328 22.0802 27.328 22.0802C27.328 22.0802 26.7179 24.9681 27.0571 25.6466Z" fill="#1F1F39"/>
<path id="Vector_22" d="M22.4202 41.1989C22.4877 41.1852 29.7555 38.3648 31.1251 37.0771C31.1251 36.2911 31.1524 35.7101 31.1524 35.7101C31.1524 35.7101 29.823 36.4936 26.6069 36.3851C25.2737 36.3908 23.954 36.1184 22.732 35.5853C22.7457 36.2765 22.4877 40.9272 22.4202 41.1989Z" fill="#C43D28"/>
<g id="Group_5">
<path id="Vector_23" d="M33.3073 28.1415C32.1171 28.1415 31.1516 27.534 31.1516 26.7855C31.1516 26.037 32.1171 25.4295 33.3073 25.4295C34.4976 25.4295 35.4631 26.0362 35.4631 26.7855C35.4631 27.5349 34.4984 28.1415 33.3073 28.1415Z" fill="#C43D28"/>
<path id="Vector_24" d="M21.905 28.1415C20.7148 28.1415 19.7493 27.534 19.7493 26.7855C19.7493 26.037 20.7148 25.4295 21.905 25.4295C23.0952 25.4295 24.0607 26.0362 24.0607 26.7855C24.0607 27.5349 23.0961 28.1415 21.905 28.1415Z" fill="#C43D28"/>
</g>
</g>
</g>
<path id="Vector_25" d="M27.8023 28.4525C28.3835 28.2083 28.9304 27.8895 29.4292 27.5041C29.4292 27.5041 29.7 27.3683 29.8359 27.5041C29.7325 27.9066 29.5464 28.2832 29.2896 28.6099C29.0327 28.9366 28.7107 29.2063 28.3441 29.4018C27.9774 29.5228 27.5815 29.5223 27.2151 29.4004C26.8488 29.2785 26.5315 29.0417 26.3105 28.7251C25.9029 28.1817 26.4464 28.3175 26.4464 28.3175C26.8823 28.4644 27.346 28.5106 27.8023 28.4525Z" fill="white"/>
<path id="Vector_26" d="M22.6484 32.7922C24.6819 33.3347 24.3026 34.284 25.1843 33.8773C26.0806 33.4697 26.3224 32.6563 28.1168 32.9272C29.8931 33.198 29.5137 34.1473 30.6527 34.0123C31.7917 33.8773 33.7039 32.5205 34.5831 31.7053C35.4768 30.8936 36.738 29.5376 36.738 29.5376C36.738 29.5376 35.9245 35.2324 31.3961 36.5884C27.9929 37.6052 23.1662 37.131 21.0096 34.0123C18.853 30.8936 18.718 29.1309 18.718 29.1309C18.718 29.1309 20.6166 32.2496 22.6484 32.7922Z" fill="#1F1F39"/>
<path id="Vector_27" d="M24.7246 32.1146C24.7059 32.1029 24.6899 32.0874 24.6775 32.0691C24.6652 32.0508 24.6568 32.0301 24.653 32.0084C24.6491 31.9866 24.6498 31.9643 24.6551 31.9429C24.6604 31.9215 24.6701 31.9014 24.6836 31.8839L25.2262 31.0705C25.2379 31.0518 25.2534 31.0358 25.2717 31.0234C25.29 31.0111 25.3107 31.0027 25.3324 30.9988C25.3541 30.995 25.3765 30.9957 25.3979 31.001C25.4193 31.0063 25.4394 31.016 25.4569 31.0295C25.4755 31.0413 25.4915 31.0568 25.5037 31.0752C25.516 31.0935 25.5243 31.1142 25.528 31.1359C25.5318 31.1577 25.531 31.1799 25.5257 31.2013C25.5203 31.2227 25.5106 31.2428 25.497 31.2602L24.9545 32.0736C24.9389 32.0941 24.9189 32.1108 24.896 32.1225C24.873 32.1342 24.8478 32.1405 24.822 32.1411C24.7881 32.139 24.755 32.1299 24.7246 32.1146Z" fill="#1F1F39"/>
<path id="Vector_28" d="M21.8366 31.5439C21.813 31.5076 21.8039 31.4637 21.8114 31.421C21.8188 31.3783 21.8422 31.3401 21.8768 31.314L22.6911 30.7714C22.7271 30.7485 22.7704 30.7399 22.8125 30.7474C22.8546 30.7548 22.8923 30.7777 22.9183 30.8116C22.9422 30.848 22.9512 30.8922 22.9436 30.9351C22.936 30.978 22.9123 31.0163 22.8773 31.0423L22.0639 31.5849C22.0352 31.6019 22.0025 31.6113 21.9691 31.6122C21.9433 31.6116 21.918 31.6051 21.895 31.5932C21.8721 31.5814 21.8521 31.5645 21.8366 31.5439Z" fill="#1F1F39"/>
<path id="Vector_29" d="M27.64 32.2496V31.5712C27.6407 31.5284 27.658 31.4874 27.6883 31.4571C27.7186 31.4268 27.7595 31.4095 27.8024 31.4089C27.8447 31.4109 27.8848 31.4287 27.9149 31.4587C27.9449 31.4887 27.9626 31.5288 27.9647 31.5712V32.2496C27.9655 32.2712 27.9619 32.2926 27.9541 32.3127C27.9462 32.3328 27.9343 32.351 27.919 32.3663C27.9038 32.3815 27.8855 32.3935 27.8655 32.4013C27.8454 32.4092 27.8239 32.4128 27.8024 32.412C27.7595 32.4113 27.7186 32.394 27.6883 32.3637C27.658 32.3334 27.6407 32.2925 27.64 32.2496V32.2496Z" fill="#1F1F39"/>
<path id="Vector_30" d="M30.2169 31.8976L29.9452 31.2192C29.9368 31.1987 29.9326 31.1768 29.9329 31.1547C29.9331 31.1326 29.9378 31.1108 29.9467 31.0906C29.9555 31.0703 29.9683 31.0521 29.9844 31.0369C30.0004 31.0217 30.0193 31.0099 30.04 31.0021C30.0605 30.9938 30.0824 30.9896 30.1045 30.9898C30.1266 30.9901 30.1484 30.9948 30.1686 31.0036C30.1889 31.0125 30.2071 31.0253 30.2223 31.0413C30.2375 31.0574 30.2493 31.0763 30.2571 31.097L30.5296 31.7754C30.538 31.7958 30.5422 31.8177 30.5419 31.8398C30.5417 31.8619 30.537 31.8837 30.5281 31.904C30.5193 31.9242 30.5065 31.9425 30.4904 31.9577C30.4744 31.9729 30.4555 31.9847 30.4348 31.9924C30.4203 32.0052 30.4066 32.0052 30.3792 32.0052C30.3446 32.0053 30.3107 31.9951 30.2818 31.9759C30.2529 31.9568 30.2304 31.9295 30.2169 31.8976Z" fill="#1F1F39"/>
<path id="Vector_31" d="M33.2792 31.7079L32.3291 31.1653C32.2896 31.1434 32.2605 31.1067 32.248 31.0633C32.2355 31.0199 32.2407 30.9734 32.2624 30.9338C32.2844 30.8946 32.3209 30.8656 32.3641 30.8531C32.4073 30.8406 32.4536 30.8457 32.4931 30.8671L33.4398 31.4097C33.4763 31.4265 33.5057 31.4556 33.5229 31.4919C33.54 31.5283 33.5439 31.5695 33.5337 31.6083C33.5235 31.6472 33.4999 31.6812 33.4671 31.7044C33.4343 31.7276 33.3944 31.7385 33.3544 31.7352C33.3277 31.7315 33.3021 31.7222 33.2792 31.7079Z" fill="#1F1F39"/>
</g>
<g id="Group_6" opacity="0.592">
<g id="Group_7" opacity="0.592">
<path id="Vector_32" opacity="0.592" d="M19.7288 51.4769C19.8594 51.5451 20.0023 51.5862 20.1492 51.5978C20.296 51.6094 20.4436 51.5912 20.5833 51.5444C20.9361 51.4495 21.3018 51.2735 21.6547 51.4589C21.8051 51.5413 21.9238 51.6712 21.9925 51.8283C22.0611 51.9853 22.0758 52.1607 22.0341 52.327C22.0067 52.4492 22.1964 52.503 22.2238 52.3809C22.2614 52.2288 22.2614 52.0698 22.2237 51.9177C22.1861 51.7657 22.112 51.625 22.0079 51.508C21.9037 51.391 21.7727 51.3011 21.626 51.2461C21.4793 51.1911 21.3214 51.1726 21.166 51.1923C20.8211 51.2984 20.4669 51.3711 20.1082 51.4094C19.7152 51.382 19.616 51.0283 19.552 50.6865C19.549 50.6739 19.5437 50.662 19.5361 50.6514C19.5286 50.6409 19.5191 50.6319 19.5081 50.6251C19.4971 50.6182 19.4849 50.6136 19.4721 50.6114C19.4593 50.6093 19.4462 50.6097 19.4336 50.6126C19.421 50.6155 19.4091 50.6209 19.3985 50.6284C19.388 50.636 19.379 50.6455 19.3722 50.6565C19.3653 50.6675 19.3607 50.6797 19.3585 50.6925C19.3564 50.7053 19.3568 50.7183 19.3597 50.7309C19.3827 51.0177 19.5148 51.2846 19.7288 51.4769Z" fill="#BFE3C6"/>
<path id="Vector_33" opacity="0.592" d="M17.8166 58.2149C17.975 58.5156 18.2208 58.7614 18.5215 58.9198C18.8334 59.1095 19.1589 59.3539 19.0777 59.7606C18.9829 60.1946 18.5625 60.439 18.2096 60.6423C18.1863 60.6567 18.1696 60.6798 18.1633 60.7065C18.157 60.7332 18.1615 60.7613 18.1759 60.7846C18.1903 60.8079 18.2133 60.8246 18.24 60.8309C18.2667 60.8373 18.2948 60.8327 18.3181 60.8184C18.6929 60.6458 19.0054 60.3617 19.2127 60.0049C19.2857 59.853 19.3116 59.6828 19.2871 59.5161C19.2626 59.3494 19.1888 59.1938 19.0752 59.0693C18.8308 58.813 18.4771 58.69 18.2344 58.4456C18.0839 58.2934 17.9829 58.0993 17.9447 57.8888C17.9064 57.6782 17.9326 57.461 18.0199 57.2656C18.0498 57.1614 17.8439 57.117 17.8029 57.2255C17.738 57.3827 17.7058 57.5515 17.7081 57.7216C17.7105 57.8917 17.7474 58.0595 17.8166 58.2149Z" fill="#BFE3C6"/>
<path id="Vector_34" opacity="0.592" d="M7.21308 54.6767C7.18573 54.5514 7.19706 54.4208 7.24557 54.3021C7.29409 54.1834 7.37751 54.0822 7.48479 54.012C7.99745 53.6864 8.51524 54.1615 9.01679 54.2017C9.47818 54.2427 9.77638 53.836 9.8977 53.4327C9.95441 53.2299 9.96804 53.0175 9.93772 52.8091C9.90741 52.6007 9.83382 52.401 9.72169 52.2228C9.7073 52.1995 9.68423 52.1828 9.65755 52.1765C9.63087 52.1701 9.60277 52.1747 9.57943 52.189C9.55609 52.2034 9.53942 52.2265 9.53309 52.2532C9.52676 52.2799 9.53129 52.308 9.54568 52.3313C9.67281 52.5285 9.74267 52.7572 9.7475 52.9918C9.75233 53.2263 9.69193 53.4577 9.57302 53.6599C9.51583 53.787 9.41319 53.888 9.28527 53.9432C9.15736 53.9984 9.01343 54.0037 8.88179 53.9581C8.6424 53.8622 8.39762 53.7803 8.14869 53.7129C7.94918 53.6589 7.73742 53.6721 7.5462 53.7506C7.35498 53.8291 7.19495 53.9684 7.0909 54.147C7.01435 54.3549 6.99114 54.5788 7.0234 54.798C7.03651 55.0681 7.07746 55.3361 7.14558 55.5978C7.17293 55.72 7.36261 55.6653 7.33527 55.544C7.26147 55.2605 7.22048 54.9695 7.21308 54.6767Z" fill="#BFE3C6"/>
<path id="Vector_35" opacity="0.592" d="M14.075 68.5612C14.1312 68.5407 14.1914 68.5338 14.2508 68.5409C14.3102 68.548 14.367 68.569 14.4168 68.6022C14.6127 68.7323 14.7945 68.8823 14.9594 69.0499C15.3097 69.344 15.7342 69.5361 16.1863 69.6053C16.3837 69.6369 16.5857 69.6233 16.777 69.5653C16.9684 69.5074 17.144 69.4067 17.2907 69.2709C17.4374 69.1351 17.5512 68.9677 17.6237 68.7814C17.6962 68.5951 17.7253 68.3947 17.7089 68.1955C17.6816 68.0733 17.4919 68.1263 17.5192 68.2493C17.5389 68.4847 17.4787 68.7197 17.3483 68.9166C17.2179 69.1135 17.025 69.2607 16.8007 69.3345C16.5612 69.4049 16.3091 69.4207 16.0627 69.3808C15.8164 69.3409 15.5821 69.2462 15.3772 69.1038C15.1631 68.9652 14.9628 68.8064 14.7791 68.6295C14.6395 68.4868 14.4614 68.3879 14.2664 68.345C13.9392 68.3032 13.5871 68.6287 13.7495 68.9542C13.8033 69.0662 13.9802 68.9679 13.9255 68.8457C13.8708 68.7235 13.9802 68.615 14.075 68.5612Z" fill="#BFE3C6"/>
<path id="Vector_36" opacity="0.592" d="M27.8638 65.9031C27.8763 66.0933 27.9346 66.2777 28.0337 66.4406C28.1327 66.6035 28.2697 66.74 28.4328 66.8387C28.7746 67.095 29.2599 67.3265 29.3411 67.7879C29.4265 68.3006 28.8284 68.4117 28.4465 68.3707C28.3106 68.357 28.3243 68.5603 28.4465 68.574C28.63 68.6125 28.8205 68.6 28.9974 68.5378C29.1742 68.4756 29.3306 68.366 29.4496 68.2211C29.5348 68.0439 29.5572 67.8429 29.5129 67.6512C29.4687 67.4596 29.3604 67.2887 29.2061 67.1668C28.8942 66.8523 28.4465 66.7028 28.2055 66.3234C28.1007 66.0904 28.0742 65.8297 28.13 65.5803C28.1857 65.3309 28.3208 65.1063 28.5148 64.9401C28.596 64.8598 28.4465 64.7103 28.3653 64.8051C28.0687 65.0969 27.8901 65.4878 27.8638 65.9031V65.9031Z" fill="#BFE3C6"/>
<path id="Vector_37" opacity="0.592" d="M39.227 68.2895C39.1302 68.4629 39.0829 68.6595 39.0901 68.8579C39.0973 69.0563 39.1589 69.2489 39.268 69.4148C39.4036 69.6116 39.5002 69.8326 39.5525 70.0659C39.5786 70.2931 39.5155 70.5216 39.3765 70.7033C39.3034 70.7941 39.212 70.8686 39.1082 70.9218C39.0044 70.975 38.8906 71.0058 38.7742 71.0121C38.6578 71.0185 38.5413 71.0003 38.4323 70.9587C38.3234 70.9171 38.2244 70.8531 38.1418 70.7708C38.1216 70.753 38.0954 70.7436 38.0685 70.7444C38.0416 70.7453 38.016 70.7564 37.997 70.7754C37.9779 70.7945 37.9669 70.82 37.966 70.8469C37.9651 70.8738 37.9745 70.9001 37.9923 70.9203C38.1462 71.0633 38.3384 71.1586 38.5454 71.1946C38.7525 71.2305 38.9655 71.2056 39.1586 71.1228C39.3456 71.0326 39.502 70.8894 39.6084 70.7111C39.7147 70.5327 39.7663 70.3271 39.7567 70.1197C39.7294 69.6455 39.2825 69.3063 39.2825 68.8184C39.2865 68.593 39.3749 68.3774 39.5303 68.2141C39.6857 68.0508 39.8967 67.9518 40.1216 67.9366C40.1485 67.9366 40.1744 67.9259 40.1935 67.9068C40.2125 67.8878 40.2232 67.8619 40.2232 67.8349C40.2232 67.808 40.2125 67.7821 40.1935 67.763C40.1744 67.744 40.1485 67.7333 40.1216 67.7333C39.9374 67.7421 39.7585 67.7978 39.602 67.8951C39.4454 67.9925 39.3163 68.1282 39.227 68.2895Z" fill="#BFE3C6"/>
<path id="Vector_38" opacity="0.592" d="M33.2467 49.6057C33.4207 49.9669 33.6596 50.293 33.9516 50.5677C34.114 50.7438 34.2498 51.0018 33.9927 51.1658C33.7645 51.2889 33.5047 51.341 33.2467 51.3154C33.2198 51.3154 33.1939 51.3261 33.1748 51.3452C33.1558 51.3642 33.1451 51.3901 33.1451 51.4171C33.1451 51.444 33.1558 51.4699 33.1748 51.4889C33.1939 51.508 33.2198 51.5187 33.2467 51.5187C33.5885 51.5324 34.1823 51.4649 34.3182 51.0983C34.4541 50.7455 34.1012 50.4336 33.8841 50.2038C33.5489 49.8842 33.3539 49.4449 33.3416 48.9819C33.3425 48.78 33.4054 48.5833 33.5219 48.4184C33.6383 48.2535 33.8027 48.1283 33.9927 48.06C34.006 48.0564 34.0185 48.0502 34.0295 48.0418C34.0405 48.0334 34.0496 48.0229 34.0566 48.0109C34.0635 47.9989 34.0679 47.9857 34.0697 47.972C34.0715 47.9583 34.0706 47.9443 34.067 47.931C34.0634 47.9176 34.0572 47.9051 34.0488 47.8941C34.0404 47.8832 34.0299 47.874 34.0179 47.8671C34.0059 47.8602 33.9927 47.8557 33.979 47.8539C33.9653 47.8521 33.9513 47.853 33.938 47.8566C33.7746 47.9221 33.6263 48.0203 33.5021 48.1451C33.378 48.2698 33.2806 48.4186 33.2159 48.5823C33.1512 48.7461 33.1205 48.9212 33.1258 49.0972C33.1311 49.2731 33.1723 49.4462 33.2467 49.6057Z" fill="#BFE3C6"/>
<path id="Vector_39" opacity="0.592" d="M33.0836 57.51C33.4903 57.727 33.5715 58.2286 33.7073 58.6208C33.7573 58.8147 33.852 58.9943 33.9839 59.1451C34.1158 59.2958 34.2813 59.4136 34.4669 59.4889C34.8659 59.6312 35.3018 59.6312 35.7007 59.4889C35.9286 59.3853 36.1335 59.2372 36.3034 59.0534C36.4733 58.8695 36.6048 58.6536 36.6901 58.4183C36.744 58.2961 36.5406 58.2422 36.5005 58.3644C36.4177 58.588 36.2876 58.791 36.119 58.9596C35.9504 59.1282 35.7474 59.2583 35.5238 59.341C35.3032 59.4069 35.0699 59.4191 34.8436 59.3766C34.6172 59.3341 34.4043 59.2381 34.2225 59.0967C33.897 58.7985 33.8697 58.3106 33.7099 57.9167C33.6465 57.748 33.5446 57.5964 33.4122 57.474C33.2799 57.3517 33.1209 57.2619 32.9477 57.2118C32.7495 57.1624 32.5418 57.1648 32.3447 57.2188C32.1477 57.2728 31.9678 57.3766 31.8224 57.5202C31.7139 57.6424 31.8498 57.7766 31.9446 57.6826C32.0891 57.5326 32.2789 57.4343 32.4848 57.4031C32.6907 57.3719 32.9012 57.4095 33.0836 57.51Z" fill="#BFE3C6"/>
<path id="Vector_40" opacity="0.592" d="M45.5719 53.6728C45.4596 54.0169 45.4629 54.3884 45.5813 54.7305C45.6488 55.0834 45.6667 55.4901 45.3104 55.6935C45.1557 55.77 44.9784 55.7873 44.8118 55.7424C44.6452 55.6974 44.5007 55.5931 44.4056 55.4491C44.3381 55.3406 44.1612 55.4491 44.2295 55.5576C44.3172 55.6962 44.4398 55.8092 44.585 55.8854C44.7302 55.9616 44.8928 55.9982 45.0566 55.9917C45.219 55.9784 45.3742 55.919 45.504 55.8205C45.6337 55.7219 45.7326 55.5883 45.7889 55.4354C45.8485 55.0497 45.8193 54.6555 45.7034 54.2828C45.6615 54.083 45.697 53.8748 45.8026 53.7001C45.8464 53.6282 45.9121 53.5723 45.9901 53.5407C46.0681 53.509 46.1542 53.5032 46.2357 53.5241C46.3579 53.5395 46.4126 53.3472 46.2904 53.3071C46.1468 53.2747 45.9964 53.2935 45.8652 53.3603C45.734 53.4271 45.6302 53.5376 45.5719 53.6728Z" fill="#BFE3C6"/>
</g>
<path id="Vector_41" opacity="0.592" d="M53.8243 61.5616L53.8384 61.6967L43.9532 62.7264L43.9391 62.5913L53.8243 61.5616Z" fill="#BFE3C6"/>
<path id="Vector_42" opacity="0.592" d="M10.262 61.0139L10.265 61.1497L0.478016 61.36L0.475098 61.2242L10.262 61.0139Z" fill="#BFE3C6"/>
</g>
</g>
</g>
<g id="Icon">
<g id="Ellipse 72">
<path id="Vector_43" d="M46.1393 17.0886C50.8582 17.0886 54.6836 13.2632 54.6836 8.5443C54.6836 3.82541 50.8582 0 46.1393 0C41.4204 0 37.595 3.82541 37.595 8.5443C37.595 13.2632 41.4204 17.0886 46.1393 17.0886Z" fill="#3D5CFF"/>
<path id="Vector_44" d="M46.1392 16.6614C50.6221 16.6614 54.2563 13.0272 54.2563 8.5443C54.2563 4.06136 50.6221 0.427216 46.1392 0.427216C41.6562 0.427216 38.0221 4.06136 38.0221 8.5443C38.0221 13.0272 41.6562 16.6614 46.1392 16.6614Z" stroke="white" stroke-width="0.85443"/>
</g>
<g id="icon/camera">
<path id="Subtract" d="M49.1656 12.1039H43.1129C42.877 12.1036 42.6509 12.0099 42.4842 11.8431C42.3174 11.6763 42.2236 11.4502 42.2234 11.2144V6.94225C42.2234 6.70627 42.3171 6.47994 42.4839 6.313C42.6506 6.14606 42.8769 6.05216 43.1129 6.05193H44.3176L44.7534 5.18041C44.7827 5.12106 44.8281 5.07115 44.8845 5.0364C44.9409 5.00165 45.0059 4.98345 45.0721 4.98389H47.2081C47.2743 4.98375 47.3392 5.00207 47.3955 5.03679C47.4518 5.07151 47.4973 5.12125 47.5268 5.18041L47.9617 6.05193H49.1656C49.4016 6.05193 49.6279 6.14562 49.7949 6.3124C49.9618 6.47918 50.0557 6.70542 50.056 6.94139V11.2135C50.056 11.4497 49.9622 11.6761 49.7952 11.8431C49.6282 12.0101 49.4018 12.1039 49.1656 12.1039ZM46.1401 7.29769C45.7878 7.29735 45.4434 7.4015 45.1504 7.59695C44.8573 7.7924 44.6288 8.07038 44.4938 8.39572C44.3588 8.72106 44.3232 9.07914 44.3918 9.42466C44.4603 9.77018 44.6297 10.0876 44.8787 10.3368C45.1276 10.586 45.4449 10.7558 45.7904 10.8246C46.1358 10.8935 46.4939 10.8583 46.8194 10.7236C47.1449 10.5889 47.4231 10.3606 47.6188 10.0678C47.8145 9.77491 47.919 9.43057 47.919 9.07832C47.9186 8.60651 47.7311 8.15412 47.3976 7.82033C47.0641 7.48654 46.6119 7.2986 46.1401 7.29769Z" fill="white"/>
</g>
</g>
</g>
</svg>
