<svg xmlns="http://www.w3.org/2000/svg" width="24.695" height="31.751" viewBox="0 0 24.695 31.751">
    <g id="Group_18142" transform="translate(-604 -407.215)">
        <path id="Path_47403"
            d="M1.26,0H23.435a1.26,1.26,0,0,1,1.26,1.26V30.491a1.26,1.26,0,0,1-1.26,1.26h-.576L12.19,21.82,2.083,31.751H1.26A1.26,1.26,0,0,1,0,30.491V1.26A1.26,1.26,0,0,1,1.26,0Z"
            transform="translate(604 407.215)" fill="#fff" />
        <path id="Polygon_9"
            d="M8.139,1.137a.4.4,0,0,1,.759,0l1.54,4.614a.4.4,0,0,0,.379.273h4.961a.4.4,0,0,1,.231.727L12.014,9.575a.4.4,0,0,0-.148.453l1.53,4.584a.4.4,0,0,1-.61.453L8.749,12.211a.4.4,0,0,0-.462,0L4.251,15.065a.4.4,0,0,1-.61-.453l1.53-4.584a.4.4,0,0,0-.148-.453L1.028,6.75a.4.4,0,0,1,.231-.727H6.219A.4.4,0,0,0,6.6,5.75Z"
            transform="translate(607.829 409.768)" fill="#54bfcc" />
    </g>
</svg>
