<svg id="Group_18360" xmlns="http://www.w3.org/2000/svg" width="18.125" height="23.304"
    viewBox="0 0 18.125 23.304">
    <path id="Path_47403"
        d="M.925,0H17.2a.925.925,0,0,1,.925.925V22.379a.925.925,0,0,1-.925.925h-.423L8.947,16.015,1.529,23.3h-.6A.925.925,0,0,1,0,22.379V.925A.925.925,0,0,1,.925,0Z"
        transform="translate(0 0)" fill="#565c63" />
    <path id="Polygon_9"
        d="M5.873,1.137a.4.4,0,0,1,.759,0L7.637,4.148a.4.4,0,0,0,.379.273h3.23a.4.4,0,0,1,.231.727L8.883,6.982a.4.4,0,0,0-.148.453l1,2.981a.4.4,0,0,1-.61.453L6.483,9.005a.4.4,0,0,0-.462,0L3.385,10.869a.4.4,0,0,1-.61-.453l1-2.981a.4.4,0,0,0-.148-.453L1.028,5.148a.4.4,0,0,1,.231-.727h3.23a.4.4,0,0,0,.379-.273Z"
        transform="translate(2.811 1.874)" fill="#0000000" />
</svg>
