<svg xmlns="http://www.w3.org/2000/svg" width="21" height="16.767" viewBox="0 0 21 16.767">
  <g id="Group_17231" data-name="Group 17231" transform="translate(0.5 0.5)">
    <path id="Path_47939" data-name="Path 47939" d="M-500.475,33.353a2.5,2.5,0,0,1-.414,1.038,2.049,2.049,0,0,1-1.171.79c-.149.036-.2.094-.2.247.008.683.007,1.367,0,2.05,0,.448-.281.738-.664.67a.9.9,0,0,1-.416-.227q-1.377-1.257-2.737-2.533a.432.432,0,0,0-.327-.128c-.565.007-1.131,0-1.725,0,0,.167,0,.321,0,.474a8.655,8.655,0,0,1-.043,1.187,2.073,2.073,0,0,1-2.073,1.74c-1.6.007-3.2,0-4.8,0a.489.489,0,0,0-.349.129c-.831.72-1.667,1.435-2.5,2.151a.623.623,0,0,1-.7.157.628.628,0,0,1-.363-.654c.006-.573,0-1.146,0-1.718a.178.178,0,0,0-.134-.2,2.075,2.075,0,0,1-1.36-1.647.717.717,0,0,0-.03-.092V31.907a.357.357,0,0,0,.023-.052,2.143,2.143,0,0,1,2.34-1.81h3.411v-.234c0-.755,0-1.51,0-2.264a2.1,2.1,0,0,1,2.13-2.151c3.318-.012,6.637-.007,9.955,0a2.1,2.1,0,0,1,1.692.826,2.656,2.656,0,0,1,.447,1Zm-2.966,2.857c0-.5,0-.949,0-1.4,0-.52.213-.735.732-.741a.946.946,0,0,0,1.05-1.051q0-2.695,0-5.389a1.443,1.443,0,0,0-.048-.385.923.923,0,0,0-.986-.66h-6.971c-.957,0-1.914,0-2.87,0a.915.915,0,0,0-.98.94q-.012,2.8,0,5.6a.842.842,0,0,0,.48.812,1.463,1.463,0,0,0,.6.124q3.144.013,6.287,0a.92.92,0,0,1,.686.264c.422.406.857.8,1.286,1.2ZM-510.012,35c-.092,0,.537.266.466.266-1,0-2,.006-3.006,0a2.111,2.111,0,0,1-2.147-2.137c-.006-.481,0-.963,0-1.445v-.43c-.074,0,.55.657.5.657-1.139,0,.418,2.9,1.336,2.9C-512.117,34.812-510.012,35.471-510.012,35Z" transform="translate(520.475 -25.388)" fill="#fff" stroke="rgba(0,0,0,0)" stroke-width="1"/>
    <path id="Path_47940" data-name="Path 47940" d="M-335.109,93.276q-1.678,0-3.357,0a.594.594,0,0,1-.656-.631.573.573,0,0,1,.5-.544,1.957,1.957,0,0,1,.272-.014h6.519a2.25,2.25,0,0,1,.234.009.578.578,0,0,1,.541.583.584.584,0,0,1-.555.593c-.175.013-.351,0-.527,0Z" transform="translate(347.978 -88.829)" fill="#fff" stroke="rgba(0,0,0,0)" stroke-width="1"/>
    <path id="Path_47941" data-name="Path 47941" d="M-335.085,142.268q1.639,0,3.279,0a1.448,1.448,0,0,1,.291.024.572.572,0,0,1,.459.575.576.576,0,0,1-.466.57,1.268,1.268,0,0,1-.252.022h-6.636c-.458,0-.733-.25-.708-.639a.567.567,0,0,1,.445-.527,1.379,1.379,0,0,1,.29-.026Q-336.734,142.266-335.085,142.268Z" transform="translate(347.975 -136.56)" fill="#fff" stroke="rgba(0,0,0,0)" stroke-width="1"/>
  </g>
</svg>
