<svg xmlns="http://www.w3.org/2000/svg" width="28.912" height="23.002" viewBox="0 0 28.912 23.002">
  <g id="Group_18107" data-name="Group 18107" transform="translate(0.5 0.499)">
    <path id="Path_47939" data-name="Path 47939" d="M-492.563,36.5a3.483,3.483,0,0,1-.578,1.449,2.859,2.859,0,0,1-1.635,1.1c-.208.05-.275.132-.272.345.011.954.01,1.908,0,2.861,0,.625-.392,1.03-.927.936a1.255,1.255,0,0,1-.58-.317q-1.922-1.755-3.82-3.535a.6.6,0,0,0-.457-.179c-.789.009-1.579,0-2.407,0,0,.233,0,.447,0,.662a12.078,12.078,0,0,1-.059,1.657,2.893,2.893,0,0,1-2.893,2.428c-2.235.009-4.469,0-6.7,0a.683.683,0,0,0-.488.179c-1.16,1.006-2.327,2-3.492,3a.869.869,0,0,1-.973.219.876.876,0,0,1-.506-.912c.009-.8,0-1.6.006-2.4a.248.248,0,0,0-.187-.278,2.9,2.9,0,0,1-1.9-2.3,1.011,1.011,0,0,0-.042-.128V34.486a.5.5,0,0,0,.032-.073,2.991,2.991,0,0,1,3.266-2.525h4.761v-.327c0-1.053-.007-2.107,0-3.16a2.926,2.926,0,0,1,2.973-3c4.631-.017,9.262-.009,13.893,0a2.932,2.932,0,0,1,2.361,1.153,3.706,3.706,0,0,1,.624,1.4ZM-496.7,40.49c0-.7,0-1.324,0-1.95,0-.726.3-1.026,1.022-1.034a1.32,1.32,0,0,0,1.465-1.467q0-3.761,0-7.521a2.015,2.015,0,0,0-.067-.537,1.288,1.288,0,0,0-1.376-.922q-4.864,0-9.728,0c-1.335,0-2.671-.006-4.006,0a1.277,1.277,0,0,0-1.367,1.311q-.017,3.91,0,7.821a1.175,1.175,0,0,0,.67,1.133,2.042,2.042,0,0,0,.836.173q4.387.018,8.774,0a1.284,1.284,0,0,1,.957.368c.589.567,1.2,1.115,1.8,1.671Zm-9.171-1.692c-.128,0,.749.372.651.372-1.4,0-2.8.008-4.2,0a2.945,2.945,0,0,1-3-2.982c-.009-.672,0-1.344,0-2.016v-.6c-.1-.007.767.917.7.917-1.589,0,.583,4.054,1.864,4.054C-508.811,38.54-505.873,39.459-505.873,38.8Z" transform="translate(520.475 -25.388)" fill="#fff" stroke="rgba(0,0,0,0)" stroke-width="1"/>
    <path id="Path_47940" data-name="Path 47940" d="M-333.521,93.746q-2.342,0-4.685,0a.829.829,0,0,1-.916-.88.8.8,0,0,1,.692-.759,2.733,2.733,0,0,1,.38-.019h9.1a3.141,3.141,0,0,1,.326.012.807.807,0,0,1,.755.814.816.816,0,0,1-.775.827c-.244.018-.49.007-.735.007Z" transform="translate(351.481 -87.541)" fill="#fff" stroke="rgba(0,0,0,0)" stroke-width="1"/>
    <path id="Path_47941" data-name="Path 47941" d="M-333.489,142.268q2.288,0,4.576,0a2.017,2.017,0,0,1,.405.033.8.8,0,0,1,.64.8.8.8,0,0,1-.65.8,1.768,1.768,0,0,1-.351.031q-4.63,0-9.261,0c-.64,0-1.023-.349-.988-.892a.792.792,0,0,1,.621-.735,1.925,1.925,0,0,1,.405-.037Q-335.791,142.266-333.489,142.268Z" transform="translate(351.478 -134.303)" fill="#fff" stroke="rgba(0,0,0,0)" stroke-width="1"/>
  </g>
</svg>
