<svg xmlns="http://www.w3.org/2000/svg" width="24.955" height="25" viewBox="0 0 24.955 25">
  <g id="Group_32" data-name="Group 32" transform="translate(0 0)">
    <path id="Path_44853" data-name="Path 44853" d="M1249.317,42.563a7.551,7.551,0,0,1-.3.774.416.416,0,0,1-.727.109q-2.652-2.651-5.3-5.309a.413.413,0,0,1,.1-.714,7.735,7.735,0,0,1,.738-.313h.661a3.145,3.145,0,0,1,1.563,1.024q1.1,1.135,2.229,2.233a3.2,3.2,0,0,1,1.04,1.584Z" transform="translate(-1224.362 -37.11)" fill="#74569d"/>
    <path id="Path_44854" data-name="Path 44854" d="M1147.761,143.69a3.2,3.2,0,0,1-1.581-1.042c-.863-.888-1.749-1.753-2.619-2.633a2.056,2.056,0,0,1-.35-2.525c.211-.363.484-.406.779-.112q2.618,2.618,5.23,5.239c.3.3.266.6-.119.793a6.953,6.953,0,0,1-.73.279Z" transform="translate(-1142.927 -118.69)" fill="#74569d"/>
    <path id="Path_44855" data-name="Path 44855" d="M1219.336,47.345a1.887,1.887,0,0,1-.531,1.293c-.654.676-1.307,1.356-2,2a2.047,2.047,0,0,1-2.922-.13q-1.9-1.9-3.793-3.8t-3.791-3.8a2.068,2.068,0,0,1-.325-2.629,2.73,2.73,0,0,1,.354-.431q.839-.852,1.688-1.694a2.075,2.075,0,0,1,3.094-.006q3.779,3.777,7.551,7.561A2.186,2.186,0,0,1,1219.336,47.345Z" transform="translate(-1194.46 -37.388)" fill="#74569d"/>
    <path id="Path_44856" data-name="Path 44856" d="M1153.066,113.644a2.119,2.119,0,0,1-1.544-.671q-1.73-1.742-3.468-3.476l-4.025-4.034a2.1,2.1,0,0,1,0-3.208q.809-.811,1.618-1.62a2.081,2.081,0,0,1,3.13,0q3.749,3.753,7.495,7.509a2.094,2.094,0,0,1,0,3.154c-.562.565-1.127,1.128-1.689,1.693A2.091,2.091,0,0,1,1153.066,113.644Z" transform="translate(-1143.214 -88.723)" fill="#74569d"/>
    <path id="Path_44857" data-name="Path 44857" d="M1186.223,86.11a2.616,2.616,0,0,1,.326-.592q2.206-2.238,4.436-4.452a.807.807,0,0,1,1.2.009q1.408,1.4,2.8,2.81a.809.809,0,0,1,0,1.2q-2.2,2.222-4.421,4.43a.811.811,0,0,1-1.22-.01c-.931-.928-1.864-1.854-2.781-2.8A2.856,2.856,0,0,1,1186.223,86.11Z" transform="translate(-1178.292 -72.797)" fill="#74569d"/>
  </g>
</svg>
