<?xml version="1.0" encoding="iso-8859-1"?>
<!-- Uploaded to: SVG Repo, www.svgrepo.com, Generator: SVG Repo Mixer Tools -->
<svg fill="#000000" version="1.1" id="Layer_1" xmlns="http://www.w3.org/2000/svg" xmlns:xlink="http://www.w3.org/1999/xlink" 
	 viewBox="0 0 243.832 243.832" xml:space="preserve">
<g>
	<g>
		<g>
			<path d="M206.419,142.544c-3.572-1.968-7.632-1.144-11.564-0.34c-2.028,0.416-4.104,0.824-6.024,0.82
				c4.16-8.784,11.588-16.268,21.32-21.428c-0.068,0.436,0.012,0.904,0.256,1.316c0.564,0.94,1.776,1.248,2.72,0.688
				c2.352-1.4,3.128-4.332,1.776-6.676l-2.524-0.824c-4.692,2.08-8.96,4.648-12.748,7.604c0.272-2.752,0.376-8.856-3.124-14.12
				c-3.088-4.64-8.068-7.264-11.096-8.524V20.088C185.411,9.008,176.399,0,165.323,0H26.891C15.815,0,6.807,9.012,6.807,20.088
				v157.8l0.584,1.404l42.324,42.324l1.404,0.584h80.74c5.188,5.44,11.54,10.104,18.9,13.584c2.948,1.396,7.328,1.512,11.56,1.62
				c2.764,0.076,5.376,0.14,7.248,0.552c2.012,0.44,4.504,1.44,7.144,2.496c4.148,1.664,8.432,3.38,11.972,3.38
				c0.116,0,0.232,0,0.344-0.004c24.02-0.764,41.104-16.3,46.88-42.616C240.867,178.58,229.019,155.004,206.419,142.544z
				 M185.407,141.032V130.68c3.784-0.64,7.044-1.708,9.324-2.644C190.835,131.916,187.695,136.292,185.407,141.032z
				 M166.195,120.652l-3.704,2.784c-2.556-1.552-4.664-3.192-6.172-4.5L166.195,120.652z M156.515,117.128
				c4.1-1.672,11.64-3.996,19.56-2.612c7.98,1.376,14.496,6.156,17.9,9.12L156.515,117.128z M168.655,121.08l6.352,1.104
				l-5.884,4.424c-1.748-0.632-3.392-1.372-4.908-2.192L168.655,121.08z M177.083,122.896c0.108-0.08,0.128-0.212,0.188-0.32
				l6.924,1.204l-6.1,4.588c-1.296-0.044-2.612-0.144-3.952-0.376c-1-0.172-1.968-0.416-2.92-0.684L177.083,122.896z
				 M186.611,124.236c0.012-0.008,0.008-0.024,0.02-0.036l6.992,1.216c-2.852,1.16-7.332,2.596-12.456,2.916L186.611,124.236z
				 M183.631,103.392c2.564,0.996,7.62,3.416,10.516,7.76c2.62,3.936,2.86,8.572,2.724,11.256c-2.048-1.912-5.804-4.98-10.688-7.424
				C183.527,110.812,183.447,105.896,183.631,103.392z M49.127,215.42l-35.548-35.548h19.428c8.892,0,16.12,7.232,16.12,16.116
				V215.42z M53.099,218.224v-22.236c0-11.076-9.012-20.084-20.088-20.084H10.775V20.088c0-8.892,7.232-16.12,16.116-16.12h138.424
				c8.892,0,16.12,7.232,16.12,16.12V99.72l-0.096-0.028l-0.296,1.508c-0.06,0.292-1.116,6.16,1.176,12.092
				c-1.796-0.656-3.66-1.232-5.66-1.576c-12.756-2.2-24.156,4.152-24.632,4.42l-1.532,0.872l1.176,1.308
				c0.312,0.344,6.544,7.096,15.888,10.68c0.18,0.236,0.452,0.36,0.728,0.36c0.032,0,0.064-0.028,0.096-0.032
				c1.708,0.608,3.484,1.136,5.376,1.46c1.884,0.324,3.736,0.46,5.528,0.46c0.772,0,1.508-0.072,2.252-0.12v9.928
				c-1.436-0.608-2.856-1.28-4.248-1.948c-4.988-2.396-10.12-4.86-15.808-3.784c-22.196,4.26-39.372,19.936-43.76,39.932
				c-3.32,15.136,0.928,30.648,10.748,42.972H53.099z M232.023,200.356c-3.144,14.34-12.932,38.54-43.128,39.5
				c-2.956,0.128-6.816-1.528-10.716-3.088c-2.796-1.116-5.436-2.176-7.768-2.688c-2.244-0.492-5.036-0.568-7.992-0.644
				c-3.644-0.092-7.772-0.204-9.968-1.24c-23.076-10.912-35.8-33.972-30.952-56.088c4.112-18.732,19.684-32.864,40.636-36.888
				c0.676-0.132,1.352-0.192,2.032-0.192c3.692,0,7.412,1.784,11.312,3.656c3.268,1.572,6.648,3.192,10.4,4.016
				c3.268,0.72,6.576,0.048,9.772-0.608c3.372-0.688,6.56-1.34,8.856-0.072C225.551,157.624,236.611,179.46,232.023,200.356z"/>
			<path d="M202.407,151.34c-2.82-1.508-6.156-0.884-9.376-0.28c-2.484,0.468-5.052,0.956-7.332,0.448
				c-2.936-0.644-5.72-1.948-8.412-3.208c-4.388-2.056-8.524-4-13.108-3.188c-19.04,3.36-33.112,15.68-36.732,32.156
				c-4.26,19.428,7.46,39.784,28.508,49.5c2.388,1.1,6.064,1.228,9.616,1.348c2.416,0.08,4.704,0.156,6.392,0.528
				c1.804,0.396,3.988,1.252,6.296,2.16c3.54,1.392,7.196,2.828,10.088,2.828c0.068,0,0.128,0,0.192-0.004
				c20.26-0.444,34.572-12.96,39.26-34.336C231.839,180.924,221.631,161.652,202.407,151.34z M226.031,198.904
				c-4.496,20.492-18.172,32.488-37.528,32.916c-2.596,0.032-6.128-1.344-9.58-2.7c-2.38-0.936-4.628-1.82-6.572-2.248
				c-1.852-0.408-4.216-0.484-6.72-0.572c-3.376-0.112-6.868-0.232-8.92-1.18c-20.264-9.356-31.572-28.872-27.492-47.46
				c3.456-15.748,16.972-27.532,35.268-30.756c0.608-0.108,1.212-0.156,1.816-0.156c3.388,0,6.716,1.56,10.212,3.196
				c2.78,1.304,5.656,2.652,8.788,3.34c2.648,0.576,5.396,0.064,8.056-0.436c3.044-0.572,5.92-1.116,8.184,0.096
				C220.047,162.864,229.887,181.336,226.031,198.904z"/>
			<path d="M171.251,179.052l-0.832,0.084c-0.128,0.168-3.104,4.204-2.652,8.872c0.448,4.664,4.136,8.056,4.296,8.2l0.832-0.084
				c0.128-0.168,3.104-4.204,2.652-8.868C175.099,182.588,171.411,179.196,171.251,179.052z M172.355,194.892
				c-0.972-1.044-3.144-3.708-3.464-6.996c-0.312-3.28,1.312-6.32,2.068-7.532c0.972,1.044,3.144,3.712,3.464,7
				C174.735,190.644,173.111,193.68,172.355,194.892z"/>
			<path d="M186.135,182.196c-0.196,0.08-4.864,1.896-6.984,6.08v0.004c-2.112,4.184-0.8,9.02-0.748,9.224l0.752,0.38
				c0.196-0.08,4.864-1.896,6.98-6.08c2.112-4.184,0.804-9.024,0.752-9.228L186.135,182.196z M185.119,191.296
				c-1.484,2.936-4.48,4.636-5.764,5.252c-0.264-1.4-0.68-4.808,0.812-7.756c1.484-2.944,4.484-4.64,5.764-5.26
				C186.195,184.932,186.607,188.348,185.119,191.296z"/>
			<path d="M67.755,57.828c1.508-1.612,2.632-3.404,3.376-5.38c0.748-1.972,1.096-4.032,1.064-6.18
				c-0.036-2.116-0.444-4.12-1.224-6.016c-0.78-1.896-1.924-3.624-3.432-5.188c-1.504-1.564-3.492-2.804-5.96-3.72
				s-5.28-1.376-8.44-1.376H38.167v33.16h14.972c3.196,0,6.056-0.48,8.58-1.444C64.235,60.724,66.247,59.436,67.755,57.828z
				 M53.131,57.116h-7.836V35.892h7.84c3.848,0,6.78,1.004,8.796,3.008c2.012,2.008,3.056,4.444,3.128,7.32
				c0.076,3-0.892,5.568-2.888,7.696C60.175,56.048,57.163,57.116,53.131,57.116z"/>
			<rect x="77.583" y="29.972" width="7.132" height="33.16"/>
			<polygon points="119.895,56.976 98.495,56.976 98.495,49.488 119.135,49.488 119.135,43.664 98.495,43.664 98.495,36.032 
				119.895,36.032 119.895,29.972 91.359,29.972 91.359,63.132 119.895,63.132 			"/>
			<polygon points="137.531,63.132 144.719,63.132 144.719,35.656 156.811,35.656 156.811,29.972 125.447,29.972 125.447,35.656 
				137.531,35.656 			"/>
			<path d="M59.747,89.348c0,0.624,0.508,1.132,1.132,1.132h97.756c0.624,0,1.132-0.508,1.132-1.132
				c0-0.624-0.508-1.132-1.132-1.132H60.879C60.255,88.216,59.747,88.724,59.747,89.348z"/>
			<path d="M158.639,105.024h-97.76c-0.624,0-1.132,0.508-1.132,1.132s0.508,1.132,1.132,1.132h97.756
				c0.624,0,1.132-0.508,1.132-1.132S159.263,105.024,158.639,105.024z"/>
			<path d="M144.111,121.832H60.879c-0.624,0-1.132,0.508-1.132,1.132c0,0.624,0.508,1.132,1.132,1.132h83.232
				c0.624,0,1.132-0.508,1.132-1.132C145.243,122.34,144.735,121.832,144.111,121.832z"/>
			<path d="M113.083,138.644H59.835c-0.624,0-1.132,0.508-1.132,1.132c0,0.624,0.508,1.132,1.132,1.132h53.248
				c0.624,0,1.132-0.508,1.132-1.132C114.215,139.152,113.707,138.644,113.083,138.644z"/>
			<path d="M113.083,155.452H59.835c-0.624,0-1.132,0.508-1.132,1.132c0,0.624,0.508,1.132,1.132,1.132h53.248
				c0.624,0,1.132-0.508,1.132-1.132C114.215,155.96,113.707,155.452,113.083,155.452z"/>
			<path d="M38.627,81.868L37.495,83v9.352l1.132,1.132h9.356l1.132-1.132V83l-1.132-1.132H38.627z M46.851,91.22h-7.088v-7.084
				h7.088V91.22z"/>
			<path d="M38.627,99.268l-1.132,1.132v9.356l1.132,1.132h9.356l1.132-1.132V100.4l-1.132-1.132H38.627z M46.851,108.624h-7.088
				v-7.088h7.088V108.624z"/>
			<path d="M38.627,116.664l-1.132,1.132v9.356l1.132,1.132h9.356l1.132-1.132v-9.356l-1.132-1.132H38.627z M46.851,126.02h-7.088
				v-7.088h7.088V126.02z"/>
			<path d="M38.627,133.72l-1.132,1.132v9.352l1.132,1.132h9.356l1.132-1.132v-9.352l-1.132-1.132H38.627z M46.851,143.072h-7.088
				v-7.084h7.088V143.072z"/>
			<path d="M38.627,151.12l-1.132,1.132v9.352l1.132,1.132h9.356l1.132-1.132v-9.352l-1.132-1.132H38.627z M46.851,160.472h-7.088
				v-7.084h7.088V160.472z"/>
		</g>
	</g>
</g>
</svg>