<svg xmlns="http://www.w3.org/2000/svg" width="27.273" height="26.011" viewBox="0 0 27.273 26.011">
    <path id="star"
        d="M27.273,10.08a1.184,1.184,0,0,1-.427.786l-5.949,5.8,1.41,8.195a2.436,2.436,0,0,1,.017.328.967.967,0,0,1-.172.582.579.579,0,0,1-.5.238,1.323,1.323,0,0,1-.655-.2l-7.359-3.868L6.277,25.814a1.391,1.391,0,0,1-.655.2.6.6,0,0,1-.516-.238.97.97,0,0,1-.173-.582,2.679,2.679,0,0,1,.033-.328l1.41-8.195L.41,10.867A1.249,1.249,0,0,1,0,10.08q0-.606.918-.754l8.228-1.2L12.833.672q.311-.672.8-.672t.8.672L18.127,8.13l8.228,1.2q.918.148.918.754Z"
        transform="translate(0 0)" fill="#B1B1B1" />
</svg>
