<svg xmlns="http://www.w3.org/2000/svg" width="20.679" height="22.997" viewBox="0 0 20.679 22.997"><defs><style>.a{fill:#f5f5f5;}.b{fill:rgba(0,0,0,0);}</style></defs><g transform="translate(600.397 -750.15)"><path class="a" d="M-580.691,750.65a.73.73,0,0,1,.473.779c-.011,1.153-.007,2.305,0,3.458a.883.883,0,0,1-.243.64q-3.254,3.543-6.5,7.092a.515.515,0,0,0-.151.38c.005,1.625,0,3.251.007,4.876a.864.864,0,0,1-.331.724c-1.493,1.26-2.978,2.532-4.468,3.8a1.182,1.182,0,0,1-.339.218.557.557,0,0,1-.735-.424,1.825,1.825,0,0,1-.021-.342q0-4.414,0-8.828a.566.566,0,0,0-.165-.418q-3.243-3.524-6.481-7.054a.908.908,0,0,1-.25-.659c.005-1.153.009-2.306,0-3.458a.739.739,0,0,1,.473-.78Zm-17.253,5.018.174.192q2.839,3.094,5.681,6.186a.954.954,0,0,1,.271.693q-.01,3.877,0,7.755v.28c.1-.082.16-.13.219-.18q1.575-1.347,3.153-2.691a.4.4,0,0,0,.161-.344c-.006-1.6,0-3.194-.008-4.79a1.02,1.02,0,0,1,.3-.748q2.521-2.73,5.029-5.472c.26-.283.518-.568.8-.88Zm16.528-3.83H-598.7v2.622h17.281Z" transform="translate(0)"/><path class="b" d="M-599.522,750.15H-580.6l.089.035a1.217,1.217,0,0,1,.789,1.248c-.011,1.166-.007,2.344,0,3.451a1.378,1.378,0,0,1-.375.98q-1.683,1.832-3.362,3.667-1.57,1.713-3.141,3.425a.205.205,0,0,0-.018.022.16.16,0,0,0,0,.019q0,1.052,0,2.1c0,.908,0,1.848.005,2.771a1.364,1.364,0,0,1-.509,1.109c-.927.783-1.867,1.583-2.775,2.357q-.845.72-1.691,1.439a1.661,1.661,0,0,1-.489.306,1.043,1.043,0,0,1-.361.065,1.061,1.061,0,0,1-1.038-.864,2.205,2.205,0,0,1-.03-.428v-.1c0-2.863,0-5.824,0-8.737,0-.04,0-.042-.033-.079q-1.6-1.737-3.195-3.477-1.642-1.789-3.286-3.577a1.4,1.4,0,0,1-.382-1c.005-1.105.009-2.282,0-3.451a1.227,1.227,0,0,1,.783-1.247Zm18.721,1H-599.31c-.054.037-.088.1-.087.275.011,1.176.007,2.356,0,3.465a.414.414,0,0,0,.118.318q1.645,1.787,3.287,3.577,1.6,1.739,3.194,3.477a1.071,1.071,0,0,1,.3.757c0,2.911,0,5.872,0,8.735v.1a1.434,1.434,0,0,0,.012.239.062.062,0,0,0,.056.052l.016,0a.858.858,0,0,0,.188-.13q.846-.718,1.69-1.438c.909-.775,1.85-1.576,2.779-2.359a.371.371,0,0,0,.154-.339c-.005-.926-.005-1.866-.005-2.776q0-1.05,0-2.1a1.017,1.017,0,0,1,.282-.72q1.571-1.711,3.14-3.424,1.681-1.834,3.363-3.668a.385.385,0,0,0,.111-.3c-.005-1.11-.009-2.292,0-3.465C-580.716,751.25-580.749,751.186-580.8,751.15Zm-18.395.188h18.281v3.622H-599.2Zm17.281,1H-598.2v1.622h16.281Zm-17.155,2.83h18.035l-1.037,1.136-.532.582-1.049,1.143c-1.3,1.421-2.651,2.89-3.982,4.33a.524.524,0,0,0-.163.406c.006.928.006,1.87.006,2.781,0,.659,0,1.341,0,2.01a.9.9,0,0,1-.338.727c-.8.676-1.606,1.368-2.388,2.037l-.763.653c-.041.035-.082.069-.135.112l-.09.074-.818.674v-3.087c0-1.97,0-4.006,0-6.01a.458.458,0,0,0-.139-.353c-1.495-1.622-3.01-3.275-4.476-4.873l-1.205-1.314-.1-.115Zm15.768,1h-13.505l.613.668c1.466,1.6,2.981,3.25,4.475,4.871a1.457,1.457,0,0,1,.4,1.033c-.005,2,0,4.038,0,6.007v.948l.156-.134c.778-.665,1.581-1.353,2.376-2.027,0-.663,0-1.337,0-1.988,0-.91,0-1.85-.006-2.775a1.51,1.51,0,0,1,.428-1.091c1.33-1.439,2.677-2.908,3.98-4.328l1.049-1.143Z" transform="translate(0)"/></g></svg>