<svg xmlns="http://www.w3.org/2000/svg" width="12.854" height="12.836" viewBox="0 0 12.854 12.836">
    <g id="language" transform="translate(0 0.025)">
        <path id="Path_50367"
            d="M0,9.528V.98A.3.3,0,0,0,.019.933a1.109,1.109,0,0,1,1.1-.951q1.945-.014,3.889,0a1.1,1.1,0,0,1,1.1.9c.057.286.082.578.119.866.022.166.044.336.066.505h5.362a1.1,1.1,0,0,1,.973.468,2.781,2.781,0,0,1,.226.534v8.548a.332.332,0,0,0-.019.06,1.114,1.114,0,0,1-.4.687,1.37,1.37,0,0,1-.587.257h-6.4l-.069-.022a1.041,1.041,0,0,1-.829-.687,5.217,5.217,0,0,1-.157-.857c-.035-.235-.06-.471-.091-.713H1.183a1.086,1.086,0,0,1-.961-.468A3.016,3.016,0,0,1,0,9.528ZM6.394,3.011c0,.035,0,.057.006.075q.221,1.785.443,3.566c.138,1.114.273,2.229.421,3.34A.592.592,0,0,1,7.1,10.5c-.43.483-.851.976-1.274,1.469a.957.957,0,0,0-.063.088H11.63c.345,0,.477-.132.477-.477v-8.1c0-.345-.132-.477-.477-.477H6.394Zm.078,6.768c-.057-.452-.113-.888-.166-1.328Q6.09,6.695,5.87,4.936,5.635,3.043,5.4,1.147A.407.407,0,0,0,4.935.732H1.218c-.326,0-.465.135-.465.461V9.315c0,.33.135.465.465.465H6.473ZM5.192,11.553c.3-.352.584-.675.879-1.014h-1C5.107,10.871,5.148,11.195,5.192,11.553Z"
            transform="translate(0 0)" fill="#565c63" />
        <path id="Path_50368"
            d="M242.115,159.748a4.835,4.835,0,0,1-.779-1.318c-.009-.028-.022-.053-.031-.082-.041-.138-.072-.257-.27-.267a.34.34,0,0,1-.279-.386.373.373,0,0,1,.374-.339c.326-.006.653,0,.979,0h.154v-.342a.378.378,0,1,1,.753,0v.336h.534c.2,0,.411-.006.615,0a.374.374,0,0,1,.358.367.361.361,0,0,1-.345.374c-.11,0-.138.05-.166.138a4.589,4.589,0,0,1-.713,1.34c-.044.057-.085.113-.135.182.232.188.461.377.691.565.044.038.094.072.138.11a.376.376,0,1,1-.468.587c-.248-.195-.487-.4-.728-.593-.047-.041-.094-.078-.148-.122-.248.2-.49.4-.731.6-.063.05-.122.1-.188.144a.372.372,0,0,1-.515-.082.367.367,0,0,1,.066-.515c.245-.2.493-.4.738-.6C242.045,159.814,242.074,159.786,242.115,159.748Zm1.136-1.639H242.03a3.753,3.753,0,0,0,.612,1.086A3.861,3.861,0,0,0,243.251,158.11Z"
            transform="translate(-233.196 -151.708)" fill="#565c63" />
        <path id="Path_50369"
            d="M62.825,87.644H61.786c-.078.389-.154.778-.235,1.165a.376.376,0,0,1-.741.041.4.4,0,0,1,0-.173q.372-1.85.741-3.695a.391.391,0,0,1,.427-.355c.217,0,.436,0,.653,0a.392.392,0,0,1,.43.352q.372,1.846.741,3.692a.378.378,0,1,1-.741.148c-.072-.339-.135-.678-.2-1.017C62.85,87.751,62.837,87.7,62.825,87.644Zm-.151-.766c-.1-.5-.2-1-.3-1.5-.053,0-.091.006-.135.006-.1.5-.2.992-.3,1.491C62.187,86.878,62.426,86.878,62.674,86.878Z"
            transform="translate(-58.891 -81.993)" fill="#565c63" />
    </g>
</svg>
