<svg xmlns="http://www.w3.org/2000/svg" width="20" height="17.936" viewBox="0 0 20 17.936">
    <g id="megaphone" transform="translate(0 -26.424)">
        <g id="Group_17988" transform="translate(0 26.424)">
            <path id="Path_48954"
                d="M62.259,359.039l-.035,0a3.339,3.339,0,0,1-.8-.148l-1.782,3.086a.586.586,0,0,0,.221.8l1.754.984a.586.586,0,0,0,.794-.218l2.6-4.505Z"
                transform="translate(-57.234 -345.902)" fill="#74569d" />
            <g id="Group_17987">
                <path id="Path_48955"
                    d="M251.758,26.511l-5.294,3.241v9.334l5.3,3.149a.586.586,0,0,0,.886-.5V27.011A.586.586,0,0,0,251.758,26.511Z"
                    transform="translate(-236.837 -26.424)" fill="#74569d" />
                <g id="Group_17986" transform="translate(0 4.042)">
                    <path id="Path_48956"
                        d="M1.9,167.048v-3.936a3.149,3.149,0,0,1,.07-.657H1.113A1.113,1.113,0,0,0,0,163.568v3.025a1.113,1.113,0,0,0,1.113,1.113h.852A3.168,3.168,0,0,1,1.9,167.048Z"
                        transform="translate(0 -161.184)" fill="#74569d" />
                    <path id="Path_48957"
                        d="M83.927,137.835H80.532a2.1,2.1,0,0,1-1.992-2.059V131.84a1.9,1.9,0,0,1,1.992-1.925h3.395Z"
                        transform="translate(-75.472 -129.912)" fill="#74569d" />
                </g>
            </g>
        </g>
        <g id="Group_17989" transform="translate(16.619 29.768)">
            <path id="Path_48958"
                d="M427.215,294.386a.585.585,0,0,1-.414-.172l-1.182-1.182a.586.586,0,0,1,.829-.829l1.182,1.182a.586.586,0,0,1-.414,1Z"
                transform="translate(-425.446 -285.001)" fill="#74569d" />
            <path id="Path_48959"
                d="M426.031,114.385a.586.586,0,0,1-.414-1L426.8,112.2a.586.586,0,0,1,.829.829l-1.182,1.182A.584.584,0,0,1,426.031,114.385Z"
                transform="translate(-425.445 -112.032)" fill="#74569d" />
            <path id="Path_48960"
                d="M441.441,218.333h-1.672a.586.586,0,1,1,0-1.172h1.672a.586.586,0,1,1,0,1.172Z"
                transform="translate(-438.646 -213.054)" fill="#74569d" />
        </g>
    </g>
</svg>
