<svg id="Group_16879" data-name="Group 16879" xmlns="http://www.w3.org/2000/svg" width="19.815" height="25" viewBox="0 0 19.815 25">
  <path id="Path_44780" data-name="Path 44780" d="M-1523.621,1098.134a6.114,6.114,0,0,1,.886.311,2.708,2.708,0,0,1,1.517,2.339c0,.071,0,.142,0,.24a8.82,8.82,0,0,0-2.892-.5,8.85,8.85,0,0,0-2.89.5,2.708,2.708,0,0,1,.86-2.117,2.69,2.69,0,0,1,1.434-.726.5.5,0,0,0,.107-.045Z" transform="translate(1534.018 -1098.134)" fill="#fff"/>
  <path id="Path_44781" data-name="Path 44781" d="M-1624.688,1174.784q-4.479,0-8.958,0a1.535,1.535,0,0,1-.41-.042.685.685,0,0,1-.513-.562.626.626,0,0,1,.244-.674,4.148,4.148,0,0,0,1.4-1.868,12.071,12.071,0,0,0,.964-3.837c.112-1.164.178-2.336.2-3.506a7.114,7.114,0,0,1,6.355-6.892,7.057,7.057,0,0,1,7.74,6.089c.115.859.076,1.737.122,2.606a17.812,17.812,0,0,0,.784,4.675,6.444,6.444,0,0,0,.947,1.941,5.108,5.108,0,0,0,.734.736.744.744,0,0,1,.3.7.683.683,0,0,1-.516.588,1.487,1.487,0,0,1-.41.043Q-1620.2,1174.786-1624.688,1174.784Z" transform="translate(1634.586 -1153.504)" fill="#fff"/>
  <path id="Path_44782" data-name="Path 44782" d="M-1534.937,1447.062h6.818a3.7,3.7,0,0,1-3.422,2.238C-1533.014,1449.3-1534.669,1448.21-1534.937,1447.062Z" transform="translate(1541.437 -1424.301)" fill="#fff"/>
</svg>
