<svg xmlns="http://www.w3.org/2000/svg" width="24.69" height="24.328" viewBox="0 0 24.69 24.328">
  <g id="Group_18108" data-name="Group 18108" transform="translate(-174.638 -762)">
    <path id="search" d="M11.338,1.333A10.268,10.268,0,0,1,19.7,17.57L17.769,19.61A10.273,10.273,0,1,1,11.337,1.333Z" transform="translate(173.581 760.667)" fill="#74569d"/>
    <rect id="Rectangle_20667" data-name="Rectangle 20667" width="7" height="3" rx="0.5" transform="translate(194.379 779.257) rotate(45)" fill="#74569d"/>
    <path id="Path_48963" data-name="Path 48963" d="M184.5,764.227h0a7.982,7.982,0,0,1,5.93,2.4,8.9,8.9,0,0,1,2.7,6.463c-.662-.943-1.221-3.215-2.148-4.554-1-1.339-1.064-1.407-3.4-2.952A12.845,12.845,0,0,0,184.5,764.227Z" fill="#fff" stroke="#fff" stroke-linecap="round" stroke-linejoin="round" stroke-width="1"/>
  </g>
</svg>
