<svg id="Group_16497" data-name="Group 16497" xmlns="http://www.w3.org/2000/svg" width="15.027" height="15.028" viewBox="0 0 15.027 15.028">
  <path id="Path_47418" data-name="Path 47418" d="M-726.147-96.02a1.965,1.965,0,0,1-.866-.368c-.068-.056-.135-.113-.2-.175q-1.32-1.325-2.638-2.653a1.1,1.1,0,0,1-.289-1.173,1.1,1.1,0,0,1,.92-.783,1.351,1.351,0,0,1,.234-.013h2.455v-.191q0-4.511,0-9.022a.593.593,0,0,1,.334-.587.584.584,0,0,1,.838.487c0,.034,0,.068,0,.1q0,4.577,0,9.154a1.171,1.171,0,0,1-1.006,1.216,1.532,1.532,0,0,1-.248.013h-2.355a1.189,1.189,0,0,0,.076.1q1.251,1.26,2.5,2.518a.581.581,0,0,0,.851.037c.069-.062.132-.131.2-.2l2.442-2.391-.037-.064c-.186,0-.373,0-.559,0a.583.583,0,0,1-.54-.774.526.526,0,0,1,.471-.387,4.267,4.267,0,0,1,.95.021,1.133,1.133,0,0,1,.708,1.781,1.786,1.786,0,0,1-.183.209q-1.276,1.286-2.554,2.57a1.783,1.783,0,0,1-1.042.55.227.227,0,0,0-.053.022Z" transform="translate(730.2 111.048)" fill="#764c99"/>
  <path id="Path_47419" data-name="Path 47419" d="M-499.615-106.976a.727.727,0,0,0-.03.08,1.144,1.144,0,0,1-1.13.888c-.21,0-.421,0-.631,0a.585.585,0,0,1-.585-.59.585.585,0,0,1,.592-.582c.176,0,.352,0,.546,0a.5.5,0,0,0-.049-.075q-1.266-1.276-2.533-2.549a.575.575,0,0,0-.861-.007q-1.28,1.282-2.555,2.569c-.01.01-.018.023-.049.062h2.383a1.174,1.174,0,0,1,1.234,1.235q0,4.533,0,9.066a.672.672,0,0,1-.473.732h-.235a.67.67,0,0,1-.474-.731q.011-4.466,0-8.933v-.195h-2.465a1.146,1.146,0,0,1-1.114-.709,1.145,1.145,0,0,1,.287-1.289q1.287-1.3,2.576-2.589a1.754,1.754,0,0,1,2.605,0c.856.859,1.708,1.721,2.567,2.577a1.479,1.479,0,0,1,.386.692Z" transform="translate(514.643 111.176)" fill="#764c99"/>
</svg>
