<svg id="Group_16881" data-name="Group 16881" xmlns="http://www.w3.org/2000/svg" width="17.898" height="23.304" viewBox="0 0 17.898 23.304">
  <path id="Path_47891" data-name="Path 47891" d="M-157.025,1142.173a1.2,1.2,0,0,1-.61-.544c-.4-.642-.815-1.275-1.233-1.926l-2.009.668a4.331,4.331,0,0,1-.477.146.724.724,0,0,1-.862-.884c.15-.538.354-1.062.539-1.59.335-.957.676-1.913,1.007-2.872.048-.139.1-.208.266-.2,1.217.092,2.435.168,3.652.261a.633.633,0,0,1,.336.149c.59.5,1.168,1.014,1.756,1.517a.224.224,0,0,1,.08.288q-.777,2.182-1.541,4.369a.98.98,0,0,1-.587.613Z" transform="translate(162.242 -1118.869)" fill="#fff"/>
  <path id="Path_47892" data-name="Path 47892" d="M-111.083,1142.175a1.062,1.062,0,0,1-.623-.722c-.483-1.4-.979-2.8-1.478-4.2a.289.289,0,0,1,.091-.384c.592-.5,1.168-1.013,1.755-1.516a.485.485,0,0,1,.259-.113c1.24-.092,2.48-.174,3.719-.265a.19.19,0,0,1,.228.152q.754,2.166,1.518,4.328a.767.767,0,0,1-.141.845.762.762,0,0,1-.86.172c-.76-.256-1.521-.509-2.3-.771-.042.062-.083.122-.122.183-.376.587-.758,1.17-1.125,1.762a1.15,1.15,0,0,1-.6.524Z" transform="translate(123.445 -1118.872)" fill="#fff"/>
  <path id="Path_47893" data-name="Path 47893" d="M-142.967,1066.24a1.585,1.585,0,0,1-.434,1.047c-.435.5-.872.99-1.294,1.5a.775.775,0,0,0-.169.4c-.061.672-.1,1.346-.146,2.019a1.5,1.5,0,0,1-1.467,1.452c-.7.043-1.392.089-2.087.145a.529.529,0,0,0-.275.13c-.508.433-1.009.873-1.513,1.311a1.505,1.505,0,0,1-2.15,0c-.5-.434-.99-.873-1.5-1.3a.728.728,0,0,0-.382-.151c-.732-.066-1.469-.085-2.2-.179a1.443,1.443,0,0,1-1.273-1.411c-.046-.7-.089-1.392-.146-2.087a.566.566,0,0,0-.13-.3c-.432-.509-.873-1.009-1.312-1.512a1.506,1.506,0,0,1,0-2.15c.427-.492.863-.978,1.279-1.48a.816.816,0,0,0,.169-.42c.07-.739.09-1.484.185-2.219a1.415,1.415,0,0,1,1.334-1.219c.673-.054,1.346-.1,2.02-.137a.769.769,0,0,0,.509-.2c.479-.431.969-.851,1.455-1.273a1.5,1.5,0,0,1,2.115,0c.506.435,1,.88,1.516,1.307a.732.732,0,0,0,.381.156c.672.059,1.346.1,2.019.145a1.488,1.488,0,0,1,1.449,1.464c.045.673.087,1.347.145,2.019a.689.689,0,0,0,.151.36c.439.523.89,1.035,1.338,1.549A1.541,1.541,0,0,1-142.967,1066.24Zm-10.77,3.141c-.013.321.139.435.442.307.425-.179.843-.377,1.263-.569a1.375,1.375,0,0,1,1.207,0c.412.19.824.383,1.242.561.329.14.494.008.456-.351-.033-.317-.051-.637-.113-.948a1.774,1.774,0,0,1,.573-1.807,7.841,7.841,0,0,0,.646-.7c.278-.316.213-.5-.2-.588-.222-.047-.445-.093-.668-.137-1.25-.248-1.25-.247-1.884-1.359-.128-.224-.249-.452-.385-.67-.182-.29-.359-.286-.548,0-.033.05-.061.1-.091.157l-.6,1.047a1.34,1.34,0,0,1-.939.688c-.445.089-.891.178-1.335.276-.386.085-.447.271-.185.568q.429.486.873.958a1.435,1.435,0,0,1,.39,1.252C-153.65,1068.506-153.688,1068.944-153.737,1069.381Z" transform="translate(160.382 -1057.77)" fill="#fff"/>
</svg>
