<svg id="wallet" xmlns="http://www.w3.org/2000/svg" width="25" height="25" viewBox="0 0 25 25">
  <g id="Group_18349" data-name="Group 18349">
    <path id="Path_49105" data-name="Path 49105" d="M25,21.875A3.125,3.125,0,0,1,21.875,25H3.125A3.125,3.125,0,0,1,0,21.875V3.125A3.148,3.148,0,0,1,3.125,0h18.75A3.125,3.125,0,0,1,25,3.125v18.75Z" fill="#74569d"/>
  </g>
  <g id="Group_18350" data-name="Group 18350" transform="translate(0.945 1.781)">
    <path id="Path_49106" data-name="Path 49106" d="M34.09,4.9c-.8,0-1.49.145-1.49.291s.654.291,1.49.291c.8,0,1.49-.145,1.49-.291C35.543,5.045,34.889,4.9,34.09,4.9Z" transform="translate(-21.699 -4.9)" fill="#fff" fill-rule="evenodd"/>
    <path id="Path_49107" data-name="Path 49107" d="M24.09,4.9c-.8,0-1.49.145-1.49.291s.654.291,1.49.291c.8,0,1.49-.145,1.49-.291C25.543,5.045,24.889,4.9,24.09,4.9Z" transform="translate(-15.333 -4.9)" fill="#fff" fill-rule="evenodd"/>
    <path id="Path_49108" data-name="Path 49108" d="M14.09,4.9c-.8,0-1.49.145-1.49.291s.654.291,1.49.291c.8,0,1.49-.145,1.49-.291C15.543,5.045,14.889,4.9,14.09,4.9Z" transform="translate(-8.966 -4.9)" fill="#fff" fill-rule="evenodd"/>
    <path id="Path_49109" data-name="Path 49109" d="M4.09,4.9c-.8,0-1.49.145-1.49.291s.654.291,1.49.291c.8,0,1.49-.145,1.49-.291C5.543,5.045,4.889,4.9,4.09,4.9Z" transform="translate(-2.6 -4.9)" fill="#fff" fill-rule="evenodd"/>
    <path id="Path_49110" data-name="Path 49110" d="M34.09,62.9c-.8,0-1.49.145-1.49.291s.654.291,1.49.291c.8,0,1.49-.145,1.49-.291S34.889,62.9,34.09,62.9Z" transform="translate(-21.699 -41.824)" fill="#fff" fill-rule="evenodd"/>
    <path id="Path_49111" data-name="Path 49111" d="M24.09,62.9c-.8,0-1.49.145-1.49.291s.654.291,1.49.291c.8,0,1.49-.145,1.49-.291S24.889,62.9,24.09,62.9Z" transform="translate(-15.333 -41.824)" fill="#fff" fill-rule="evenodd"/>
    <path id="Path_49112" data-name="Path 49112" d="M14.09,62.9c-.8,0-1.49.145-1.49.291s.654.291,1.49.291c.8,0,1.49-.145,1.49-.291S14.889,62.9,14.09,62.9Z" transform="translate(-8.966 -41.824)" fill="#fff" fill-rule="evenodd"/>
    <path id="Path_49113" data-name="Path 49113" d="M4.09,62.9c-.8,0-1.49.145-1.49.291s.654.291,1.49.291c.8,0,1.49-.145,1.49-.291S4.889,62.9,4.09,62.9Z" transform="translate(-2.6 -41.824)" fill="#fff" fill-rule="evenodd"/>
    <path id="Path_49114" data-name="Path 49114" d="M54.651,6.6c.727.291,1.381.436,1.49.291.073-.145-.436-.509-1.163-.8S53.6,5.655,53.488,5.8C53.415,5.945,53.924,6.309,54.651,6.6Z" transform="translate(-34.992 -5.437)" fill="#fff" fill-rule="evenodd"/>
    <path id="Path_49115" data-name="Path 49115" d="M44.59,4.9c-.8,0-1.49.145-1.49.291s.654.291,1.49.291c.8,0,1.49-.145,1.49-.291C46.043,5.045,45.389,4.9,44.59,4.9Z" transform="translate(-28.383 -4.9)" fill="#fff" fill-rule="evenodd"/>
    <path id="Path_49116" data-name="Path 49116" d="M54.651,60.691c-.727.291-1.235.654-1.163.8s.763,0,1.49-.291,1.235-.654,1.163-.8C56.032,60.255,55.377,60.4,54.651,60.691Z" transform="translate(-34.992 -40.197)" fill="#fff" fill-rule="evenodd"/>
    <path id="Path_49117" data-name="Path 49117" d="M44.59,62.9c-.8,0-1.49.145-1.49.291s.654.291,1.49.291c.8,0,1.49-.145,1.49-.291C46.043,63.009,45.389,62.9,44.59,62.9Z" transform="translate(-28.383 -41.824)" fill="#fff" fill-rule="evenodd"/>
    <path id="Path_49118" data-name="Path 49118" d="M60.963,13c.182,0,.363-.545.363-1.2s-.145-1.2-.363-1.2c-.182,0-.363.545-.363,1.2S60.782,13,60.963,13Z" transform="translate(-39.524 -8.529)" fill="#fff" fill-rule="evenodd"/>
    <path id="Path_49119" data-name="Path 49119" d="M60.963,51.6c-.182,0-.363.545-.363,1.2s.145,1.2.363,1.2c.182,0,.363-.545.363-1.2S61.145,51.6,60.963,51.6Z" transform="translate(-39.524 -34.631)" fill="#fff" fill-rule="evenodd"/>
  </g>
  <path id="Path_49120" data-name="Path 49120" d="M35.187,16c-3.27,0-5.887,2.98-5.887,6.65s2.653,6.65,5.887,6.65h8.394V16Z" transform="translate(-18.653 -10.186)" fill="#74569d"/>
  <path id="Path_49121" data-name="Path 49121" d="M33.494,12.3a7.994,7.994,0,1,0,0,15.988h7.74V26.944h-7.74a6.65,6.65,0,0,1,0-13.3h7.74V12.3Z" transform="translate(-16.234 -7.831)" fill="#fff"/>
  <path id="Path_49122" data-name="Path 49122" d="M43.525,25.662A3.662,3.662,0,1,1,39.862,22,3.658,3.658,0,0,1,43.525,25.662Z" transform="translate(-22.275 -13.235)" fill="#fff"/>
</svg>
