<svg xmlns="http://www.w3.org/2000/svg" width="25.91" height="25.91" viewBox="0 0 25.91 25.91">
  <path id="calender" d="M3.24,8.1V22.669H22.669V8.1ZM21.049,3.24h3.239a1.529,1.529,0,0,1,1.618,1.618V24.288a1.529,1.529,0,0,1-1.618,1.618H1.62A1.529,1.529,0,0,1,0,24.288V4.859A1.529,1.529,0,0,1,1.62,3.24H4.859V1.62A1.529,1.529,0,0,1,6.477,0,1.529,1.529,0,0,1,8.1,1.62V3.238H17.8V1.62a1.619,1.619,0,0,1,3.239,0Zm-1.618,16.19H16.192V16.192h3.239Zm-4.857,0H11.334V16.192h3.239Zm4.857-4.857H16.192V11.334h3.239Zm-4.857,0H11.334V11.334h3.239ZM9.708,19.431H6.477V16.192H9.708Z" transform="translate(0.001 0.001)" fill="#6340D6" fill-rule="evenodd"/>
</svg>
