<svg xmlns="http://www.w3.org/2000/svg" width="17.67" height="16" viewBox="0 0 17.67 16">
    <g id="Group_18359" transform="translate(-134 -276)">
        <path id="Path_47936"
            d="M-329.975,723.742c0-.41,0-.783,0-1.155a.862.862,0,0,1,.459-.864.867.867,0,0,1,.945.129c.928.66,1.862,1.311,2.79,1.971a.831.831,0,0,1,0,1.477c-.935.666-1.876,1.323-2.812,1.986a.849.849,0,0,1-.923.115.849.849,0,0,1-.461-.835c0-.382,0-.764,0-1.184h-5.384c-.65,0-1.04-.308-1.04-.82s.39-.821,1.04-.821h5.386Z"
            transform="translate(477 -440.563)" fill="#a0a0a0" />
        <path id="Path_49126"
            d="M7,15A8.009,8.009,0,0,1-1,7,8.165,8.165,0,0,1,1.314,1.4,1,1,0,1,1,2.8,2.739,6.175,6.175,0,0,0,1,7a6.007,6.007,0,0,0,6,6,5.794,5.794,0,0,0,3.617-1.21l.006-.005A6.148,6.148,0,0,0,13,7a5.8,5.8,0,0,0-1.728-4.215A1,1,0,0,1,12.614,1.3,7.852,7.852,0,0,1,15,7a8.087,8.087,0,0,1-3.09,6.315A7.762,7.762,0,0,1,7,15Z"
            transform="translate(149 277) rotate(90)" fill="#a0a0a0" />
    </g>
</svg>
