<svg id="Group_18361" data-name="Group 18361" xmlns="http://www.w3.org/2000/svg" width="20" height="23.304" viewBox="0 0 20 23.304">
  <path id="Path_43848" data-name="Path 43848" d="M-13518.172-9430.818s-1.271.242,1.41.523,3.374.28,3.554.28,2.863-.562,2.863-.562,1.268.455,1.413.562,3.333,2.2,3.333,2.2.469.769.218,1.084a4.67,4.67,0,0,1-2.394,1.782c-1.375.383-6.123,1.5-6.123,1.5s-5.034-.731-5.616-.838a22.02,22.02,0,0,1-3.261-2.1s-.219-1.259,0-1.433a32.134,32.134,0,0,1,3.041-2.2A11.761,11.761,0,0,0-13518.172-9430.818Z" transform="translate(13524.081 9445.834)" fill="#565c63" opacity="0"/>
  <ellipse id="Ellipse_558" data-name="Ellipse 558" cx="4.899" cy="6.499" rx="4.899" ry="6.499" transform="translate(4.724 0.623)" fill="#565c63" opacity="0"/>
  <g id="icons" transform="translate(0 0)">
    <path id="user2" d="M15.021,9.417c3.156,0,5.738,3.045,5.738,6.92s-2.582,6.92-5.738,6.92-5.738-3.045-5.738-6.92S11.865,9.417,15.021,9.417ZM24.488,29.26a14.681,14.681,0,0,1-18.934,0,1.313,1.313,0,0,1-.143-1.938,12.949,12.949,0,0,1,6.024-3.737,8.158,8.158,0,0,0,7.172,0,12.272,12.272,0,0,1,6.024,3.737A1.218,1.218,0,0,1,24.488,29.26Z" transform="translate(-5.045 -9.417)" fill="#565c63"/>
  </g>
</svg>
