<svg id="Group_17082" xmlns="http://www.w3.org/2000/svg" width="25.504" height="25"
        viewBox="0 0 25.504 25">
    <g id="Group_17081" transform="translate(0)">
        <path id="Path_47920"
                d="M-90.844,1196.18a1,1,0,0,1-1.038.651c-.247,0-.494,0-.766,0v.338q0,8.79,0,17.579a1.4,1.4,0,0,1-1.012,1.478,2.088,2.088,0,0,1-.515.068c-.423.009-.847-.01-1.27.006a1.486,1.486,0,0,1-1.6-1.585c.019-5.835.009-11.67.009-17.5v-.377c-.222,0-.418.005-.614,0a2.519,2.519,0,0,1-.493-.044.792.792,0,0,1-.5-1.317c.319-.445.668-.868,1-1.3q.9-1.158,1.807-2.316a1.162,1.162,0,0,1,1.973-.005q1.38,1.749,2.738,3.514a4.142,4.142,0,0,1,.274.467Z"
                transform="translate(116.348 -1191.305)" fill="#6340D6" />
        <path id="Path_47921"
                d="M-130.816,1255.735c0-2.257.021-4.515-.01-6.772a1.506,1.506,0,0,1,1.612-1.606c.438.028.88,0,1.319.006a1.443,1.443,0,0,1,1.466,1.443c0,.05,0,.1,0,.149q0,6.8,0,13.6a1.535,1.535,0,0,1-.532,1.26,1.471,1.471,0,0,1-.967.336c-.44,0-.88,0-1.32,0a1.45,1.45,0,0,1-1.57-1.564Q-130.819,1259.16-130.816,1255.735Z"
                transform="translate(143.656 -1239.155)" fill="#6340D6" />
        <path id="Path_47922"
                d="M-174.277,1280.107q0-2.452,0-4.9a1.441,1.441,0,0,1,1.552-1.552c.465,0,.929,0,1.394,0a1.425,1.425,0,0,1,1.437,1.441q.007,5.028,0,10.056a1.427,1.427,0,0,1-1.414,1.443c-.514.018-1.029.017-1.543,0a1.434,1.434,0,0,1-1.425-1.482C-174.279,1283.443-174.276,1281.775-174.277,1280.107Z"
                transform="translate(180.752 -1261.606)" fill="#6340D6" />
        <path id="Path_47923"
                d="M-214.152,1301.635c0,1.046,0,2.092,0,3.137a1.556,1.556,0,0,1-1.62,1.638c-.39,0-.78.006-1.17,0a1.556,1.556,0,0,1-1.595-1.614q0-3.162,0-6.324a1.552,1.552,0,0,1,1.6-1.611q.6-.005,1.195,0a1.548,1.548,0,0,1,1.592,1.587C-214.148,1299.51-214.152,1300.573-214.152,1301.635Z"
                transform="translate(218.539 -1281.419)" fill="#6340D6" />
    </g>
</svg>
