<svg id="Layer_1" xmlns="http://www.w3.org/2000/svg" width="399.835" height="111.138"
        viewBox="0 0 399.835 111.138">
    <path id="Path_49134"
            d="M81.239,7.359,80,10.147H68.564L63.652,20.356l.772,1.544H62.988l-5.6-5.641L64.36,1.847,63.588.26H84.735L82.118,5.6H73.9l1.244-2.638H72.017L69.872,7.38Z"
            transform="translate(65.694 0.298)" fill="#f5f5f5" />
    <path id="Path_49135" d="M67,20.349,75.9,1.754,75.15.21h9.758L75.236,20.37Z"
            transform="translate(76.694 0.24)" fill="#f5f5f5" />
    <path id="Path_49136"
            d="M99.935.16l-1.2,2.7H91.142L82.756,20.342l.751,1.544h-1.48L76.472,16.2,82.906,2.927H75.4L76.687.246Z"
            transform="translate(86.31 0.183)" fill="#f5f5f5" />
    <path id="Path_49137"
            d="M95.891,9.791l-5.04,10.488L91.6,21.8h-1.48L84.61,16.161,91.537,1.727,90.787.183,100.459.14l-.386,10.723L105.242.14H113.5l-9.63,20.074H95.548Z"
            transform="translate(96.852 0.16)" fill="#f5f5f5" />
    <path id="Path_49138"
            d="M124.275.05,121.358,6.1h-8.236l1.566-3.26h-3.153L109.391,7.3h11.367l-1.33,2.788H108.04l-3.517,7.4h3.153l2.917-6.048h8.171l-4.289,8.836H94.85L103.858,1.68,103.107.136Z"
            transform="translate(108.574 0.057)" fill="#f5f5f5" />
    <path id="Path_49139"
            d="M112.514,20.262l.751,1.544h-1.5l-5.533-5.662,1.78-3.582h8.236l-2.359,4.847H117l2.831-5.7-9.8-3.432,3.153-6.649L112.428.08h19.581l.794,1.587-2.295,4.675h-8.236l1.737-3.689h-3.153l-2.145,4.611,8.321,3.045.751,1.523-3.925,8.15H112.535Z"
            transform="translate(121.601 0.092)" fill="#f5f5f5" />
    <path id="Path_49140"
            d="M122.924,20.267l.751,1.544h-1.48L116.64,16.15l1.78-3.582h8.236L124.3,17.415h3.11l2.874-5.769-9.737-3.367,3.11-6.649L122.86,0h19.56l.794,1.587L141,6.434h-8.236l1.737-3.689h-3.153l-2.145,4.611,8.321,3.045.751,1.523-3.925,8.128H123.031Z"
            transform="translate(133.517)" fill="#f5f5f5" />
    <path id="Path_49141"
            d="M203.112,14.574,178.748,56.053l3.989-41.543H149.881l1.394,3.3L130.75,69.135l17.072,19.6,4.5-.107-2.316-5.362,17.308-43.237L163.242,82.99l14.605-.3,28.117-48.813L186.426,82.5l25.157-.515,23.763-59.194,14.82-8.279Z"
            transform="translate(149.669 16.609)" fill="#f5f5f5" />
    <path id="Path_49142"
            d="M6.992,14.567,20.61,23.382l-9.2,23.57L41.242,58.4,32.814,78.694l-9.437.193,6.97-17.179-25.071.515L0,74.876l17.115,19.71,4.547-.107L19.3,89.117l.15-.429,34.508-.729,11.6-28.846-2.338-5.362-25.5-10.295,6.327-16.364,9.587-.214-5.126,13.1,25.071-.536L80.4,22.267,77.724,14.46Z"
            transform="translate(0 16.552)" fill="#f5f5f5" />
    <path id="Path_49143"
            d="M41.675,80.159,47.359,86.7l-1.222,3.26H62.8l22.391-55.5,23.141-.493,7.035-19.452H45.235L37.15,35.442l22.841-.472Z"
            transform="translate(42.525 16.609)" fill="#f5f5f5" />
    <path id="Path_49144"
            d="M147.026,14.51l-60.287.45,2.4,5.512L66,77.929l5.04,8.407,46.282-.965,7.914-6.884,23.828-59.279Zm-45.7,61.51-9.587.193,20.8-52.073,9.608-.193Z"
            transform="translate(75.55 16.609)" fill="#f5f5f5" />
    <path id="Path_49145"
            d="M168.772,43.695l-4.44-.322,11.41-7.013,6.863-18.316-1.93-3.474h-59.9l2.145,4.783L96.26,85l25.179-.536L132.4,57.142l11.41-4.783L130.94,84.273l24.943-.515,14.5-35.9ZM148.826,39.92l-11.453,4.868,8.772-21.876,9.5-.193Z"
            transform="translate(110.188 16.678)" fill="#f5f5f5" />
</svg>
